<svg width="36" height="36" viewBox="0 0 36 36" fill="none" xmlns="http://www.w3.org/2000/svg">
  <circle cx="18" cy="18" r="18" fill="#F7931A" fill-opacity="0.1"/>
  <path d="M24.0001 15.6C24.3001 13.8 23.0001 12.8 21.1001 12.1L21.8001 9.5L20.1001 9.1L19.4001 11.6C19.0001 11.5 18.5001 11.4 18.1001 11.3L18.8001 8.8L17.1001 8.4L16.4001 11C16.0001 10.9 15.7001 10.8 15.3001 10.7L13.1001 10.2L12.6001 12C12.6001 12 13.9001 12.3 13.8001 12.3C14.5001 12.5 14.6001 13 14.6001 13.4L13.8001 16.4C13.9001 16.4 13.9001 16.4 14.0001 16.5H13.8001L12.7001 20.6C12.6001 20.8 12.4001 21.1 11.9001 21C12.0001 21 10.7001 20.7 10.7001 20.7L10.0001 22.6L12.1001 23.1C12.5001 23.2 12.8001 23.3 13.2001 23.4L12.5001 26L14.2001 26.4L14.9001 23.8C15.3001 23.9 15.7001 24 16.1001 24.1L15.4001 26.7L17.1001 27.1L17.8001 24.5C20.4001 25 22.4001 24.7 23.2001 22.4C23.9001 20.5 23.2001 19.4 21.8001 18.7C22.8001 18.5 23.6001 17.8 24.0001 15.6ZM19.9001 21.2C19.4001 23.1 16.3001 22.1 15.3001 21.8L16.2001 18.2C17.2001 18.5 20.4001 19.2 19.9001 21.2ZM20.4001 15.5C20.0001 17.2 17.4001 16.4 16.6001 16.2L17.4001 12.9C18.2001 13.1 20.9001 13.8 20.4001 15.5Z" fill="#F7931A"/>
</svg>
