<svg width="20" height="20" viewBox="0 0 20 20" fill="none" xmlns="http://www.w3.org/2000/svg">
<path fill-rule="evenodd" clip-rule="evenodd" d="M7.18853 3.91449C6.97899 3.70495 6.97899 3.36522 7.18853 3.15568C7.39807 2.94614 7.7378 2.94614 7.94734 3.15568L13.8115 9.01986C13.942 9.15037 13.9912 9.33139 13.9592 9.5C13.9912 9.66861 13.942 9.84963 13.8115 9.98015L7.94734 15.8443C7.7378 16.0539 7.39807 16.0539 7.18853 15.8443C6.97899 15.6348 6.97899 15.2951 7.18853 15.0855L12.774 9.5L7.18853 3.91449Z" fill="#50B8E4"/>
<mask id="mask0_244_255" style="mask-type:luminance" maskUnits="userSpaceOnUse" x="7" y="2" width="7" height="15">
<path fill-rule="evenodd" clip-rule="evenodd" d="M7.18853 3.91449C6.97899 3.70495 6.97899 3.36522 7.18853 3.15568C7.39807 2.94614 7.7378 2.94614 7.94734 3.15568L13.8115 9.01986C13.942 9.15037 13.9912 9.33139 13.9592 9.5C13.9912 9.66861 13.942 9.84963 13.8115 9.98015L7.94734 15.8443C7.7378 16.0539 7.39807 16.0539 7.18853 15.8443C6.97899 15.6348 6.97899 15.2951 7.18853 15.0855L12.774 9.5L7.18853 3.91449Z" fill="white"/>
</mask>
<g mask="url(#mask0_244_255)">
</g>
</svg>
