<svg width="20" height="20" viewBox="0 0 20 20" fill="none" xmlns="http://www.w3.org/2000/svg">
<path fill-rule="evenodd" clip-rule="evenodd" d="M1.77647 8.47632C1.63491 8.41666 1.5258 8.30653 1.46869 8.16624L0.0256058 4.61122C-0.0477264 4.43051 0.0418277 4.22555 0.225603 4.15322C0.409155 4.08111 0.617818 4.16917 0.691151 4.34988L1.87113 7.25526C2.52134 5.29365 3.77932 3.61873 5.47952 2.47546C7.44237 1.15585 9.75878 0.700461 12.0032 1.19409C15.2305 1.90404 17.7169 4.48929 18.4209 7.82886C18.4613 8.01962 18.3286 8.20164 18.1335 8.23398C17.9384 8.26632 17.7544 8.13675 17.7135 7.94642C17.0591 4.89049 14.7885 2.52899 11.8467 1.88197C9.79856 1.43074 7.68104 1.84854 5.88396 3.05715C4.27643 4.13814 3.09778 5.73658 2.50957 7.60838L5.56618 6.40851C5.74974 6.3364 5.95862 6.42424 6.03195 6.60496C6.10529 6.78567 6.01595 6.99063 5.83196 7.06296L2.2169 8.482C2.14757 8.50909 2.07579 8.52264 2.00402 8.52264C1.92691 8.52264 1.84958 8.50713 1.77647 8.47632ZM17.7835 11.517C17.9255 11.461 18.0822 11.4628 18.2238 11.5222C18.3651 11.5819 18.4744 11.692 18.5318 11.8325L19.9744 15.3882C20.0477 15.5687 19.9582 15.7736 19.7744 15.846C19.5906 15.9181 19.3822 15.8302 19.3088 15.6495L18.1298 12.7444C17.4795 14.7064 16.2216 16.3818 14.5214 17.5246C13.0752 18.497 11.437 19 9.777 19C9.1839 19 8.58813 18.9358 7.99725 18.806C4.76975 18.096 2.28357 15.5101 1.57891 12.1699C1.53869 11.9791 1.67113 11.7971 1.86624 11.7648C2.06135 11.7324 2.24535 11.8618 2.28646 12.0521C2.94111 15.1089 5.21152 17.4706 8.1537 18.1179C10.2019 18.5691 12.3196 18.1515 14.1167 16.9429C15.7242 15.8621 16.9029 14.263 17.4909 12.3904L14.4336 13.5904C14.25 13.6626 14.0414 13.5747 13.968 13.3936C13.8947 13.2133 13.9843 13.0083 14.168 12.936L17.7835 11.517Z" fill="white"/>
</svg>
