<svg width="30" height="30" viewBox="0 0 30 30" fill="none" xmlns="http://www.w3.org/2000/svg">
<rect width="30" height="30" rx="4" fill="white"/>
<rect x="0.35" y="0.35" width="29.3" height="29.3" rx="3.65" stroke="#303750" stroke-opacity="0.08" stroke-width="0.7"/>
<path fill-rule="evenodd" clip-rule="evenodd" d="M11.2487 5H7.49733C6.12044 5 5 6.12044 5 7.49733V11.2487C5 12.6256 6.12044 13.7458 7.49733 13.7458H11.2487C12.6256 13.7458 13.746 12.6256 13.746 11.2487V7.49733C13.746 6.12044 12.6256 5 11.2487 5ZM13.0384 11.2487C13.0384 12.2353 12.2356 13.0384 11.2487 13.0384H7.49733C6.51044 13.0384 5.70733 12.2356 5.70733 11.2487V7.49733C5.70733 6.51022 6.51022 5.70711 7.49733 5.70711H11.2487C12.2353 5.70711 13.0384 6.51 13.0384 7.49733V11.2487ZM22.5027 5H18.7513C17.3744 5 16.254 6.12044 16.254 7.49733V11.2487C16.254 12.6256 17.3744 13.7458 18.7513 13.7458H22.5027C23.8796 13.7458 25 12.6256 25 11.2487V7.49733C25 6.12044 23.8796 5 22.5027 5ZM24.2924 11.2487C24.2924 12.2353 23.4898 13.0384 22.5024 13.0384H18.7513C17.7644 13.0384 16.9616 12.2356 16.9616 11.2487V7.49733C16.9616 6.51022 17.7642 5.70711 18.7513 5.70711H22.5027C23.4898 5.70711 24.2927 6.51 24.2927 7.49733V11.2487H24.2924ZM7.49733 16.254H11.2487C12.6256 16.254 13.746 17.3744 13.746 18.7513V22.5027C13.746 23.8796 12.6256 25 11.2487 25H7.49733C6.12044 25 5 23.8796 5 22.5027V18.7513C5 17.3744 6.12044 16.254 7.49733 16.254ZM11.2487 24.2927C12.2356 24.2927 13.0384 23.4896 13.0384 22.5027V18.7513C13.0384 17.764 12.2353 16.9616 11.2487 16.9616H7.49733C6.51022 16.9616 5.70733 17.7642 5.70733 18.7513V22.5027C5.70733 23.4898 6.51044 24.2927 7.49733 24.2927H11.2487ZM22.5027 16.254H18.7513C17.3744 16.254 16.254 17.3744 16.254 18.7513V22.5027C16.254 23.8796 17.3744 25 18.7513 25H22.5027C23.8796 25 25 23.8796 25 22.5027V18.7513C25 17.3744 23.8796 16.254 22.5027 16.254ZM24.2924 22.5027C24.2924 23.4896 23.4898 24.2927 22.5024 24.2927H18.7513C17.7644 24.2927 16.9616 23.4898 16.9616 22.5027V18.7513C16.9616 17.7642 17.7642 16.9616 18.7513 16.9616H22.5027C23.4898 16.9616 24.2927 17.764 24.2927 18.7513V22.5027H24.2924Z" fill="#1F263E"/>
</svg>
