<svg width="20" height="20" viewBox="0 0 20 20" fill="none" xmlns="http://www.w3.org/2000/svg">
<path fill-rule="evenodd" clip-rule="evenodd" d="M16.2702 0C13.9082 0 12.0042 1.57444 10.1629 3.0972C8.49622 4.47534 6.922 5.77695 5.17711 5.77695H2.28289C1.024 5.77695 0 6.79885 0 8.05565V9.98145C0 11.238 1.024 12.2599 2.28289 12.2599H2.41133V16.7213C2.41133 17.9779 3.43556 19 4.69444 19H5.65911C6.918 19 7.942 17.9779 7.942 16.7213V13.2372C8.67911 13.7148 9.41133 14.3193 10.1622 14.9403C12.0038 16.4627 13.9078 18.0375 16.2698 18.0375C18.3616 18.0373 20 14.0759 20 9.01877C20 3.96139 18.3616 0 16.2702 0ZM7.23489 16.7215C7.23489 17.5886 6.528 18.294 5.65933 18.294H4.69467C3.82578 18.294 3.11889 17.5886 3.11889 16.7215V12.2599H5.17711C5.88533 12.2599 6.56533 12.4771 7.23489 12.8238V16.7215ZM10.614 14.3965C8.92422 12.9988 7.17689 11.5539 5.17711 11.5539H2.28289C1.41422 11.5539 0.707333 10.8485 0.707333 9.98145V8.05565C0.707333 7.18858 1.41422 6.48298 2.28289 6.48298H5.17689C7.17667 6.48298 8.92378 5.03786 10.6138 3.64087C11.8489 2.61963 13.114 1.57644 14.4951 1.05251C13.322 2.55553 12.54 5.52519 12.54 9.01877C12.54 12.5117 13.3218 15.4816 14.4947 16.9841C13.114 16.4607 11.8489 15.4175 10.614 14.3965ZM16.2702 17.3313C14.8104 17.3313 13.2476 13.9912 13.2476 9.01877C13.2476 4.04613 14.8102 0.705815 16.2702 0.705815C17.7298 0.705815 19.2927 4.04613 19.2927 9.01877C19.2924 13.9912 17.7298 17.3313 16.2702 17.3313Z" fill="white"/>
</svg>
