<svg width="20" height="20" viewBox="0 0 20 20" fill="none" xmlns="http://www.w3.org/2000/svg">
<path fill-rule="evenodd" clip-rule="evenodd" d="M2.79173 9.48558C2.8757 9.48558 2.96047 9.45848 3.0331 9.40211L12.4374 2.13089L11.8799 6.06909C11.8467 6.30488 12.0011 6.52414 12.2241 6.55937C12.2443 6.56262 12.2649 6.56425 12.2854 6.56425C12.4844 6.56425 12.6593 6.41031 12.6893 6.19647L13.3545 1.49318C13.3807 1.31051 13.3372 1.12785 13.2325 0.978785C13.128 0.829994 12.9749 0.732969 12.8016 0.705867L8.34121 0.0047365C8.11875 -0.0302252 7.90978 0.132116 7.8763 0.367633C7.84283 0.603421 7.99672 0.822948 8.22053 0.85791L11.9425 1.44331L2.54902 8.70667C2.36705 8.8476 2.3279 9.11753 2.46154 9.30969C2.54146 9.4246 2.66592 9.48558 2.79173 9.48558ZM0.409023 20H19.5907C19.8167 20 20 19.8065 20 19.5685C20 19.33 19.8167 19.1371 19.5907 19.1371H0.409023C0.183318 19.1371 0 19.33 0 19.5685C0 19.8065 0.183318 20 0.409023 20ZM15.7103 17.1137H17.5634C18.3358 17.1137 18.9643 16.5698 18.9643 15.9019V6.11391C18.9643 5.44578 18.3358 4.90216 17.5634 4.90216H15.7103C14.9376 4.90216 14.309 5.44556 14.309 6.11391V15.9019C14.3088 16.5698 14.9373 17.1137 15.7103 17.1137ZM15.1271 6.11391C15.1271 5.83598 15.389 5.60987 15.71 5.60987H17.5634C17.8844 5.60987 18.146 5.83598 18.146 6.11391V15.9019C18.146 16.1794 17.8844 16.4057 17.5634 16.4057H15.7103C15.3892 16.4057 15.1274 16.1794 15.1274 15.9019V6.11391H15.1271ZM8.96016 8.47357H10.8131C11.5852 8.47357 12.2137 9.00296 12.2137 9.6536V15.9534C12.2137 16.6038 11.5852 17.1334 10.8131 17.1334H8.96016C8.18802 17.1334 7.5595 16.6038 7.5595 15.9534V9.6536C7.5595 9.00296 8.18802 8.47357 8.96016 8.47357ZM10.8131 16.444C11.1343 16.444 11.3954 16.2236 11.3954 15.9534V9.6536C11.3954 9.38295 11.1343 9.16275 10.8131 9.16275H8.96016C8.63889 9.16275 8.37781 9.38295 8.37781 9.6536V15.9534C8.37781 16.2236 8.63889 16.444 8.96016 16.444H10.8131ZM2.48087 17.154H4.33348C5.10617 17.154 5.73469 16.6204 5.73469 15.965V12.8732C5.73469 12.2174 5.10617 11.6842 4.33348 11.6842H2.48087C1.70845 11.6842 1.07993 12.2174 1.07993 12.8732V15.965C1.07993 16.6204 1.70845 17.154 2.48087 17.154ZM1.8977 12.8732C1.8977 12.6005 2.15932 12.3786 2.48087 12.3786H4.33348C4.65503 12.3786 4.91637 12.6005 4.91637 12.8732V15.965C4.91637 16.2373 4.65503 16.4594 4.33348 16.4594H2.48087C2.15932 16.4594 1.8977 16.2373 1.8977 15.965V12.8732Z" fill="#50B8E4"/>
<mask id="mask0_244_572" style="mask-type:luminance" maskUnits="userSpaceOnUse" x="0" y="0" width="20" height="20">
<path fill-rule="evenodd" clip-rule="evenodd" d="M2.79173 9.48558C2.8757 9.48558 2.96047 9.45848 3.0331 9.40211L12.4374 2.13089L11.8799 6.06909C11.8467 6.30488 12.0011 6.52414 12.2241 6.55937C12.2443 6.56262 12.2649 6.56425 12.2854 6.56425C12.4844 6.56425 12.6593 6.41031 12.6893 6.19647L13.3545 1.49318C13.3807 1.31051 13.3372 1.12785 13.2325 0.978785C13.128 0.829994 12.9749 0.732969 12.8016 0.705867L8.34121 0.0047365C8.11875 -0.0302252 7.90978 0.132116 7.8763 0.367633C7.84283 0.603421 7.99672 0.822948 8.22053 0.85791L11.9425 1.44331L2.54902 8.70667C2.36705 8.8476 2.3279 9.11753 2.46154 9.30969C2.54146 9.4246 2.66592 9.48558 2.79173 9.48558ZM0.409023 20H19.5907C19.8167 20 20 19.8065 20 19.5685C20 19.33 19.8167 19.1371 19.5907 19.1371H0.409023C0.183318 19.1371 0 19.33 0 19.5685C0 19.8065 0.183318 20 0.409023 20ZM15.7103 17.1137H17.5634C18.3358 17.1137 18.9643 16.5698 18.9643 15.9019V6.11391C18.9643 5.44578 18.3358 4.90216 17.5634 4.90216H15.7103C14.9376 4.90216 14.309 5.44556 14.309 6.11391V15.9019C14.3088 16.5698 14.9373 17.1137 15.7103 17.1137ZM15.1271 6.11391C15.1271 5.83598 15.389 5.60987 15.71 5.60987H17.5634C17.8844 5.60987 18.146 5.83598 18.146 6.11391V15.9019C18.146 16.1794 17.8844 16.4057 17.5634 16.4057H15.7103C15.3892 16.4057 15.1274 16.1794 15.1274 15.9019V6.11391H15.1271ZM8.96016 8.47357H10.8131C11.5852 8.47357 12.2137 9.00296 12.2137 9.6536V15.9534C12.2137 16.6038 11.5852 17.1334 10.8131 17.1334H8.96016C8.18802 17.1334 7.5595 16.6038 7.5595 15.9534V9.6536C7.5595 9.00296 8.18802 8.47357 8.96016 8.47357ZM10.8131 16.444C11.1343 16.444 11.3954 16.2236 11.3954 15.9534V9.6536C11.3954 9.38295 11.1343 9.16275 10.8131 9.16275H8.96016C8.63889 9.16275 8.37781 9.38295 8.37781 9.6536V15.9534C8.37781 16.2236 8.63889 16.444 8.96016 16.444H10.8131ZM2.48087 17.154H4.33348C5.10617 17.154 5.73469 16.6204 5.73469 15.965V12.8732C5.73469 12.2174 5.10617 11.6842 4.33348 11.6842H2.48087C1.70845 11.6842 1.07993 12.2174 1.07993 12.8732V15.965C1.07993 16.6204 1.70845 17.154 2.48087 17.154ZM1.8977 12.8732C1.8977 12.6005 2.15932 12.3786 2.48087 12.3786H4.33348C4.65503 12.3786 4.91637 12.6005 4.91637 12.8732V15.965C4.91637 16.2373 4.65503 16.4594 4.33348 16.4594H2.48087C2.15932 16.4594 1.8977 16.2373 1.8977 15.965V12.8732Z" fill="white"/>
</mask>
<g mask="url(#mask0_244_572)">
</g>
</svg>
