<svg width="18" height="18" viewBox="0 0 18 18" fill="none" xmlns="http://www.w3.org/2000/svg">
<ellipse cx="9.1584" cy="9.17231" rx="8.8116" ry="8.82591" fill="#F4F4F4"/>
<mask id="mask0_244_481" style="mask-type:luminance" maskUnits="userSpaceOnUse" x="0" y="0" width="18" height="18">
<ellipse cx="9.1584" cy="9.17231" rx="8.8116" ry="8.82591" fill="white"/>
</mask>
<g mask="url(#mask0_244_481)">
<path fill-rule="evenodd" clip-rule="evenodd" d="M7.94704 13.9239H1.73486C2.04524 14.4106 2.40297 14.8653 2.80283 15.2814H15.5127C15.9125 14.8653 16.2703 14.4106 16.5806 13.9239H7.94528H7.94704Z" fill="#FF1612"/>
<path fill-rule="evenodd" clip-rule="evenodd" d="M13.8507 1.70358C10.9823 -0.104352 7.33297 -0.104352 4.4646 1.70358H13.8507Z" fill="#FF1612"/>
<path fill-rule="evenodd" clip-rule="evenodd" d="M14.0517 3.061H2.80283C2.40347 3.47812 2.04578 3.93335 1.73486 4.4202H16.5806C16.2697 3.93335 15.912 3.47812 15.5127 3.061L14.0517 3.061Z" fill="#FF1612"/>
<path fill-rule="evenodd" clip-rule="evenodd" d="M7.94696 5.77761H1.0228C0.840195 6.21748 0.693443 6.67144 0.583984 7.13504H17.7314C17.6219 6.67144 17.4751 6.21748 17.2925 5.77761H7.95224L7.94696 5.77761Z" fill="#FF1612"/>
<path fill-rule="evenodd" clip-rule="evenodd" d="M7.94696 11.2091H0.583984C0.693443 11.6727 0.840195 12.1266 1.0228 12.5665H17.2925C17.4751 12.1266 17.6219 11.6727 17.7314 11.2091H7.94696V11.2091Z" fill="#FF1612"/>
<path fill-rule="evenodd" clip-rule="evenodd" d="M4.46289 16.6388C5.8626 17.525 7.48419 17.9962 9.14009 17.998H9.17533C10.8312 17.9962 12.4528 17.525 13.8525 16.6388H4.46289Z" fill="#FF1612"/>
<path fill-rule="evenodd" clip-rule="evenodd" d="M7.94695 8.49248H0.374266C0.358406 8.71666 0.346069 8.9426 0.346069 9.17207C0.346069 9.40155 0.358406 9.62572 0.374266 9.8499H17.9411C17.9569 9.62572 17.9693 9.39978 17.9693 9.17207C17.9693 8.94436 17.9569 8.71666 17.9411 8.49248H7.94695Z" fill="#FF1612"/>
<path fill-rule="evenodd" clip-rule="evenodd" d="M5.90441 0.969267L5.99253 0.935729C5.98019 0.89513 5.96609 0.856296 5.95375 0.817461C5.93789 0.875713 5.92203 0.918077 5.90441 0.969267Z" fill="#F4F4F4"/>
<path fill-rule="evenodd" clip-rule="evenodd" d="M8.52147 9.84991H9.30218V0.346162H9.15767C8.07298 0.344611 6.99741 0.544513 5.98549 0.935733L6.0084 1.00458C6.01112 1.01365 6.01442 1.02902 6.01833 1.04724C6.02964 1.09991 6.04606 1.1764 6.06832 1.19345C6.09005 1.21009 6.16463 1.20259 6.21809 1.19722C6.23833 1.19518 6.25554 1.19345 6.2657 1.19345H6.46308L6.30271 1.30995C6.29489 1.31548 6.28107 1.32353 6.2647 1.33307C6.21833 1.36009 6.15146 1.39906 6.14234 1.42645C6.13367 1.45249 6.1624 1.51685 6.18393 1.56509C6.19305 1.58552 6.20087 1.60306 6.20402 1.61356L6.21674 1.65164C6.23359 1.70198 6.25021 1.75164 6.2657 1.80244L6.10709 1.68594C6.0996 1.6802 6.08825 1.67004 6.07484 1.65804C6.03461 1.62205 5.9758 1.56943 5.94672 1.56943C5.91791 1.56943 5.86086 1.62111 5.82116 1.65707C5.80745 1.6695 5.79581 1.68004 5.78811 1.68594L5.63303 1.80067L5.69471 1.6118C5.69787 1.60274 5.70417 1.58834 5.7116 1.57134L5.71161 1.57132C5.73316 1.52205 5.76425 1.45093 5.75639 1.42469C5.74857 1.39858 5.68101 1.35897 5.63422 1.33153C5.61774 1.32186 5.60383 1.31371 5.59602 1.30819L5.43565 1.19168H5.63303C5.64319 1.19168 5.6604 1.19328 5.68064 1.19516C5.7341 1.20012 5.80868 1.20705 5.83041 1.19168C5.85156 1.17673 5.86744 1.10636 5.87929 1.05385L5.87929 1.05383L5.8793 1.0538C5.88423 1.03194 5.88846 1.01318 5.89209 1.00281L5.90266 0.967506C4.06518 1.70189 2.5264 3.03186 1.53211 4.745L1.54797 4.79266C1.55159 4.803 1.55566 4.82153 1.5604 4.84314C1.57185 4.89527 1.58723 4.96531 1.60965 4.98153C1.63263 4.99816 1.70557 4.99069 1.75809 4.98532L1.7581 4.98532C1.77807 4.98327 1.79508 4.98153 1.80527 4.98153H2.00441L1.8458 5.09803C1.83688 5.10487 1.82013 5.11468 1.80069 5.12607L1.80066 5.12609L1.80062 5.12612L1.80061 5.12612C1.7548 5.15296 1.69409 5.18853 1.68543 5.21454C1.67629 5.24202 1.70782 5.31218 1.72977 5.36102C1.73743 5.37807 1.74392 5.39251 1.74711 5.40165C1.76261 5.45244 1.77923 5.50211 1.79608 5.55246L1.80879 5.59052L1.64842 5.47402C1.64077 5.46815 1.62908 5.45767 1.6153 5.44532C1.57518 5.40935 1.51736 5.35752 1.48981 5.35752C1.462 5.35752 1.40234 5.41035 1.36169 5.44635L1.36168 5.44636L1.36164 5.4464C1.34822 5.45828 1.33688 5.46832 1.32944 5.47402L1.17083 5.59052C1.18631 5.53978 1.20291 5.49017 1.21974 5.43988L1.21975 5.43986L1.21976 5.43983L1.21977 5.4398L1.21978 5.43978L1.21979 5.43975L1.21979 5.43973L1.2198 5.43973L1.2198 5.43972L1.2198 5.4397L1.23252 5.40165C1.2356 5.39135 1.24303 5.37415 1.2517 5.35407C1.27277 5.30529 1.30117 5.23954 1.29243 5.21454V5.20394C0.886018 6.0082 0.605469 6.87027 0.46062 7.75993C0.465222 7.78659 0.476774 7.81155 0.494104 7.8323C0.515835 7.84895 0.590416 7.84144 0.643868 7.83607C0.664108 7.83403 0.681319 7.8323 0.691484 7.8323H0.888864L0.888839 7.83232C0.835978 7.87115 0.783116 7.90998 0.728493 7.94704C0.713003 7.95755 0.694396 7.96863 0.675444 7.97991C0.627554 8.00842 0.57746 8.03825 0.569884 8.06354C0.562547 8.08804 0.589149 8.15162 0.609656 8.20065C0.618704 8.22227 0.626566 8.24107 0.629803 8.25241C0.635406 8.27206 0.646949 8.30608 0.659448 8.34292C0.670534 8.37559 0.682372 8.41048 0.691484 8.43952L0.532875 8.32302C0.490361 8.28455 0.445639 8.2486 0.398939 8.21535C0.364698 8.53312 0.347051 8.85246 0.346069 9.17208C0.346069 9.39978 0.358406 9.62573 0.374266 9.84991H8.52147ZM7.86765 1.20051C7.87781 1.20051 7.89569 1.20211 7.91671 1.20399C7.97223 1.20895 8.04969 1.21588 8.06503 1.20051C8.07972 1.18579 8.09782 1.11738 8.11164 1.06515L8.11164 1.06515C8.11771 1.04222 8.12295 1.02241 8.12671 1.01164L8.18663 0.82453L8.24655 1.01164C8.25016 1.02198 8.25423 1.04051 8.25898 1.06212L8.25898 1.06213C8.27042 1.11425 8.2858 1.18429 8.30823 1.20051C8.33124 1.21716 8.40524 1.20966 8.45828 1.20428C8.47837 1.20224 8.49544 1.20051 8.50561 1.20051H8.70299L8.54262 1.31702C8.5348 1.32254 8.521 1.33059 8.50463 1.34012L8.50462 1.34013L8.50461 1.34014C8.45824 1.36716 8.39136 1.40612 8.38225 1.43352C8.37358 1.45955 8.4023 1.5239 8.42383 1.57213L8.42383 1.57214L8.42383 1.57215C8.43295 1.59258 8.44078 1.61012 8.44393 1.62063L8.50561 1.8095L8.34524 1.693C8.33758 1.68713 8.32589 1.67665 8.31211 1.6643C8.272 1.62834 8.21418 1.5765 8.18663 1.5765C8.15882 1.5765 8.09916 1.62933 8.05851 1.66533C8.04507 1.67723 8.0337 1.6873 8.02626 1.693L7.86765 1.8095L7.92404 1.6118C7.92721 1.60122 7.93497 1.58335 7.944 1.56255L7.94402 1.56251L7.94402 1.5625C7.96512 1.51392 7.99313 1.44941 7.98572 1.42469C7.97791 1.39859 7.91035 1.35897 7.86356 1.33153C7.84707 1.32187 7.83316 1.31371 7.82535 1.30819L7.66498 1.19169L7.86765 1.20051ZM7.91671 3.09832C7.89569 3.09629 7.87782 3.09455 7.86765 3.09455H7.67027L7.83064 3.21106C7.8387 3.21675 7.85325 3.225 7.87043 3.23474C7.91715 3.26121 7.98328 3.29869 7.99101 3.32579C7.99845 3.35188 7.97011 3.41731 7.94898 3.46609C7.94008 3.48662 7.93246 3.50421 7.92933 3.51467C7.91876 3.54556 7.90863 3.57688 7.89849 3.60821L7.89849 3.60823L7.89849 3.60824L7.89848 3.60825L7.89848 3.60826L7.89847 3.60827L7.89847 3.60829L7.89846 3.6083L7.89846 3.60831L7.89846 3.60832L7.89845 3.60833L7.89845 3.60835L7.89844 3.60836L7.89844 3.60837L7.89843 3.60838L7.89843 3.6084L7.89843 3.60841L7.89842 3.60842L7.89842 3.60843L7.89841 3.60844L7.89841 3.60846L7.8984 3.60847L7.8984 3.60848L7.8984 3.60849L7.89839 3.6085C7.88829 3.63974 7.87819 3.67098 7.86765 3.70178L8.02626 3.58528C8.03482 3.57923 8.04855 3.56713 8.06466 3.55293C8.10497 3.51742 8.16019 3.46877 8.18663 3.46877C8.21288 3.46877 8.2666 3.51672 8.30631 3.55215L8.30632 3.55216C8.3226 3.56669 8.33653 3.57912 8.34524 3.58528L8.50561 3.70178C8.49506 3.67094 8.48494 3.63967 8.47482 3.60839L8.47478 3.60824C8.46464 3.5769 8.4545 3.54556 8.44393 3.51467C8.44081 3.50424 8.43307 3.48657 8.42403 3.46594C8.40248 3.41673 8.37356 3.35067 8.38225 3.32579C8.39127 3.29996 8.45691 3.26184 8.50322 3.23495C8.5202 3.22509 8.53458 3.21674 8.54262 3.21106L8.70299 3.09455H8.50561C8.49545 3.09455 8.47837 3.09615 8.45828 3.09803C8.40524 3.10299 8.33124 3.10992 8.30823 3.09455C8.28575 3.07954 8.27035 3.00955 8.25889 2.95748L8.25889 2.95748L8.25889 2.95747L8.25888 2.95746C8.25418 2.93608 8.25014 2.91772 8.24655 2.90744C8.23686 2.87567 8.22672 2.84434 8.21659 2.81301C8.20646 2.78168 8.19632 2.75034 8.18663 2.71857C8.17694 2.75034 8.16681 2.78167 8.15667 2.813C8.14654 2.84433 8.13641 2.87567 8.12671 2.90744C8.12298 2.91814 8.11778 2.93741 8.11177 2.95973L8.11177 2.95975C8.09794 3.01111 8.07977 3.07856 8.06503 3.09455C8.04969 3.1112 7.97223 3.1037 7.91672 3.09832L7.91671 3.09832ZM7.86765 4.99036C7.87781 4.99036 7.89569 4.99209 7.91671 4.99413C7.97223 4.9995 8.04969 5.00701 8.06503 4.99036C8.0797 4.97444 8.09777 4.90666 8.11158 4.85487L8.11159 4.85485L8.1116 4.85479L8.11162 4.85473L8.11164 4.85466L8.11164 4.85465L8.11165 4.85461L8.11167 4.85453L8.11168 4.85451L8.11169 4.85444C8.11774 4.83178 8.12296 4.81222 8.12671 4.80149L8.18663 4.61438L8.24655 4.80149C8.25016 4.81183 8.25423 4.83036 8.25898 4.85197L8.25898 4.85197C8.27042 4.9041 8.2858 4.97414 8.30823 4.99036C8.33124 5.00701 8.40524 4.9995 8.45828 4.99413C8.47837 4.99209 8.49544 4.99036 8.50561 4.99036H8.70299L8.54262 5.10686C8.53368 5.11371 8.5169 5.12354 8.49743 5.13494L8.49742 5.13495C8.45162 5.16179 8.3909 5.19736 8.38225 5.22336C8.37358 5.2494 8.40231 5.31376 8.42383 5.362C8.43295 5.38243 8.44078 5.39997 8.44393 5.41047L8.50561 5.59935L8.34524 5.48285C8.33758 5.47698 8.32589 5.4665 8.31211 5.45415C8.272 5.41818 8.21418 5.36634 8.18663 5.36634C8.15882 5.36634 8.09917 5.41917 8.05852 5.45517L8.05851 5.45518C8.04507 5.46708 8.0337 5.47714 8.02626 5.48285L7.86765 5.59935L7.92404 5.40165C7.92722 5.39106 7.93498 5.37317 7.94402 5.35235C7.96512 5.30376 7.99313 5.23925 7.98572 5.21454C7.97831 5.18979 7.9172 5.15376 7.871 5.12653C7.8513 5.11491 7.83431 5.1049 7.82535 5.09804L7.66498 4.98153L7.86765 4.99036ZM7.91671 6.88817C7.89569 6.88613 7.87782 6.8844 7.86765 6.8844L7.67027 6.87734L7.83064 7.0009C7.8387 7.0066 7.85325 7.01485 7.87043 7.02458L7.87044 7.02459C7.91715 7.05106 7.98328 7.08854 7.99101 7.11564C7.99827 7.14107 7.97649 7.19143 7.95527 7.24049C7.94556 7.26294 7.93597 7.28512 7.92933 7.30451C7.91876 7.3354 7.90863 7.36673 7.89849 7.39806C7.88836 7.4294 7.87823 7.46073 7.86765 7.49162L8.02626 7.37512C8.03481 7.36908 8.04853 7.35699 8.06463 7.34281L8.06465 7.34279L8.06466 7.34278C8.10497 7.30727 8.16019 7.25862 8.18663 7.25862C8.21288 7.25862 8.2666 7.30656 8.30632 7.342C8.3226 7.35653 8.33653 7.36896 8.34524 7.37512L8.50561 7.49162C8.48446 7.42984 8.4545 7.33982 8.44393 7.30451C8.44081 7.29409 8.43307 7.27642 8.42403 7.25578L8.42403 7.25578L8.42402 7.25577L8.42402 7.25575C8.40247 7.20654 8.37356 7.14051 8.38225 7.11564C8.39127 7.08981 8.45691 7.05169 8.50322 7.0248L8.50324 7.02479C8.52021 7.01493 8.53458 7.00658 8.54262 7.0009L8.70299 6.8844H8.50561C8.49545 6.8844 8.47837 6.886 8.45828 6.88788C8.40524 6.89284 8.33124 6.89977 8.30823 6.8844C8.28575 6.86939 8.27035 6.79939 8.25889 6.74733L8.25889 6.74732C8.25418 6.72593 8.25014 6.70757 8.24655 6.69729C8.23686 6.66552 8.22672 6.63419 8.21659 6.60285C8.20646 6.57152 8.19632 6.54019 8.18663 6.50842C8.17694 6.54019 8.16681 6.57152 8.15667 6.60285C8.14654 6.63418 8.13641 6.66552 8.12671 6.69729C8.12298 6.70796 8.11781 6.72716 8.11182 6.7494L8.1118 6.74947L8.11177 6.74957L8.11177 6.7496C8.09794 6.80096 8.07977 6.86841 8.06503 6.8844C8.04969 6.90105 7.97223 6.89354 7.91671 6.88817ZM7.86765 8.78021C7.87781 8.78021 7.89569 8.78194 7.91671 8.78397C7.97223 8.78935 8.04969 8.79685 8.06503 8.78021C8.0797 8.76428 8.09777 8.69651 8.11158 8.64472C8.11767 8.62187 8.12293 8.60214 8.12671 8.59133L8.18663 8.40422L8.24655 8.59133C8.25016 8.60168 8.25423 8.62021 8.25898 8.64182C8.27042 8.69394 8.2858 8.76398 8.30823 8.78021C8.33124 8.79685 8.40524 8.78935 8.45828 8.78397C8.47837 8.78194 8.49544 8.78021 8.50561 8.78021H8.70299L8.54262 8.89495C8.53368 8.90179 8.5169 8.91162 8.49743 8.92303L8.49742 8.92303L8.49741 8.92304C8.45161 8.94987 8.3909 8.98544 8.38225 9.01145C8.37358 9.03749 8.40231 9.10184 8.42383 9.15008C8.43295 9.17051 8.44078 9.18805 8.44393 9.19856L8.50561 9.38743L8.34524 9.27093C8.33758 9.26506 8.32589 9.25458 8.31211 9.24223C8.272 9.20626 8.21418 9.15443 8.18663 9.15443C8.15882 9.15443 8.09916 9.20726 8.05851 9.24326L8.05847 9.24329C8.04505 9.25518 8.0337 9.26523 8.02626 9.27093L7.86765 9.38743L7.92404 9.1915C7.92722 9.18091 7.93498 9.16301 7.94402 9.1422C7.96512 9.09361 7.99313 9.0291 7.98572 9.00439C7.97831 8.97964 7.9172 8.94361 7.871 8.91637C7.8513 8.90476 7.83431 8.89474 7.82535 8.88788L7.66498 8.77315L7.86765 8.78021ZM6.79943 2.14335C6.77935 2.14132 6.76227 2.13958 6.7521 2.13958L6.55472 2.13605L6.71333 2.25256C6.72107 2.25772 6.73383 2.26499 6.74889 2.27356L6.74891 2.27357L6.74892 2.27357L6.74893 2.27358L6.74893 2.27358C6.79563 2.30015 6.86438 2.33927 6.8737 2.36729C6.8829 2.39492 6.85098 2.46666 6.82902 2.51603L6.82901 2.51605C6.82151 2.53292 6.81516 2.54718 6.81202 2.55617L6.7521 2.74328L6.91071 2.62677C6.91927 2.62073 6.933 2.60863 6.94911 2.59443C6.98942 2.55892 7.04464 2.51027 7.07108 2.51027C7.09733 2.51027 7.15105 2.55822 7.19077 2.59365C7.20705 2.60819 7.22098 2.62062 7.22969 2.62677L7.39006 2.74328C7.36891 2.6815 7.34777 2.61795 7.32838 2.55617C7.32527 2.54726 7.31913 2.53307 7.31185 2.51626C7.29029 2.46646 7.25879 2.39369 7.2667 2.36729C7.2747 2.34057 7.34432 2.30069 7.39144 2.2737L7.39144 2.2737C7.40656 2.26504 7.41936 2.2577 7.42707 2.25256L7.58568 2.13605H7.3883C7.37814 2.13605 7.36093 2.13778 7.34069 2.13982L7.34068 2.13982C7.28723 2.1452 7.21265 2.1527 7.19092 2.13605C7.16866 2.119 7.15224 2.04251 7.14093 1.98984C7.13702 1.97162 7.13372 1.95625 7.131 1.94718C7.10985 1.88363 7.09047 1.82185 7.07108 1.75831L7.0094 1.95071C7.00667 1.95982 7.00348 1.97526 6.99969 1.99357L6.99968 1.99363L6.99968 1.99365C6.98878 2.04631 6.97301 2.12256 6.94948 2.13958C6.92647 2.15623 6.85247 2.14873 6.79943 2.14335ZM6.7521 4.03539C6.76227 4.03539 6.77935 4.03712 6.79943 4.03916L6.79943 4.03916C6.85247 4.04454 6.92647 4.05204 6.94948 4.03539C6.97307 4.01833 6.98886 3.9427 6.99976 3.89053L6.99976 3.8905L6.99978 3.89043C7.00353 3.87248 7.0067 3.85732 7.0094 3.84828L7.07108 3.65941C7.09047 3.72296 7.10985 3.78474 7.131 3.84828C7.1337 3.85729 7.13697 3.87248 7.14084 3.89048L7.14085 3.89053L7.14085 3.89053C7.15216 3.94313 7.16861 4.01962 7.19092 4.03539C7.21265 4.05076 7.28723 4.04383 7.34068 4.03887C7.36092 4.03699 7.37814 4.03539 7.3883 4.03539H7.58568L7.42707 4.15013C7.41827 4.1565 7.40281 4.16559 7.38484 4.17615L7.38484 4.17616C7.33808 4.20365 7.27434 4.24113 7.2667 4.26663C7.25884 4.29288 7.28993 4.36399 7.31148 4.41326C7.31892 4.43027 7.32522 4.44468 7.32838 4.45374C7.34388 4.50454 7.3605 4.55422 7.37735 4.60457L7.39006 4.64262L7.22969 4.52611C7.22203 4.52025 7.21035 4.50977 7.19657 4.49742L7.19657 4.49742C7.15645 4.46145 7.09863 4.40961 7.07108 4.40961C7.04327 4.40961 6.98361 4.46245 6.94296 4.49844C6.92952 4.51035 6.91816 4.52041 6.91071 4.52611L6.7521 4.64262C6.76179 4.61085 6.77193 4.57952 6.78206 4.54819C6.79219 4.51685 6.80233 4.48552 6.81202 4.45374C6.81521 4.44461 6.8217 4.43016 6.82936 4.41312C6.85131 4.36428 6.88285 4.29411 6.8737 4.26663C6.86479 4.23986 6.80163 4.20295 6.75528 4.17587C6.73747 4.16546 6.72214 4.1565 6.71333 4.15013L6.55472 4.03539H6.7521ZM6.79943 5.93468C6.77935 5.9328 6.76227 5.9312 6.7521 5.9312H6.55472L6.71333 6.0477C6.72065 6.05259 6.73247 6.05954 6.74647 6.06778C6.79318 6.09525 6.86421 6.13704 6.8737 6.1642C6.88286 6.1904 6.85127 6.26128 6.82931 6.31055C6.82168 6.32768 6.81521 6.3422 6.81202 6.35131C6.80233 6.38309 6.79219 6.41442 6.78206 6.44576C6.77193 6.47709 6.76179 6.50842 6.7521 6.54019L6.91071 6.42369C6.91816 6.41798 6.92952 6.40792 6.94296 6.39602C6.98361 6.36002 7.04327 6.30718 7.07108 6.30718C7.09863 6.30718 7.15645 6.35902 7.19657 6.39499L7.19657 6.39499C7.21035 6.40734 7.22203 6.41782 7.22969 6.42369L7.39006 6.54019L7.37735 6.50214C7.3605 6.45179 7.34388 6.40212 7.32838 6.35131C7.32521 6.34225 7.31891 6.32795 7.31147 6.31108L7.31147 6.31107L7.31146 6.31105L7.31145 6.31103L7.31142 6.31097L7.31142 6.31096C7.28988 6.26211 7.25885 6.19173 7.2667 6.1642C7.27478 6.13589 7.34559 6.0952 7.39272 6.06813L7.39274 6.06812L7.39275 6.06812C7.4073 6.05976 7.41959 6.0527 7.42707 6.0477L7.58568 5.9312H7.3883C7.37814 5.9312 7.36092 5.93293 7.34068 5.93497C7.28723 5.94034 7.21265 5.94784 7.19092 5.9312C7.16866 5.91415 7.15224 5.83765 7.14093 5.78498C7.13702 5.76676 7.13372 5.7514 7.131 5.74232C7.10985 5.67878 7.09047 5.617 7.07108 5.55345L7.0094 5.74232C7.00667 5.75145 7.00346 5.76707 6.99966 5.78558C6.98877 5.83865 6.973 5.91549 6.94948 5.9312C6.92647 5.94656 6.85247 5.93964 6.79943 5.93468ZM6.7521 7.82524C6.76227 7.82524 6.77935 7.82697 6.79943 7.82901C6.85247 7.83438 6.92647 7.84189 6.94948 7.82524C6.97307 7.80818 6.98886 7.73255 6.99976 7.68038L6.99976 7.68035L6.99978 7.68028C7.00353 7.66233 7.0067 7.64717 7.0094 7.63813C7.0185 7.6108 7.02727 7.58346 7.036 7.55626L7.03603 7.55615L7.03604 7.55614L7.03604 7.55613L7.03604 7.55612L7.03604 7.55611L7.03605 7.55611L7.03605 7.5561L7.03605 7.55609L7.03606 7.55608L7.03606 7.55607L7.03606 7.55606L7.03606 7.55605L7.03607 7.55605L7.03607 7.55604L7.03607 7.55603L7.03608 7.55602L7.03608 7.55601C7.04761 7.52007 7.05906 7.48438 7.07108 7.44926L7.08495 7.49366C7.0998 7.54129 7.11489 7.58971 7.131 7.63813C7.1337 7.64714 7.13697 7.66235 7.14084 7.68037L7.14085 7.68038C7.15216 7.73297 7.16861 7.80946 7.19092 7.82524C7.21265 7.8406 7.28723 7.83368 7.34068 7.82872C7.36092 7.82684 7.37814 7.82524 7.3883 7.82524H7.58568L7.42707 7.93998C7.41827 7.94635 7.4028 7.95544 7.38484 7.966C7.33808 7.9935 7.27434 8.03098 7.2667 8.05648C7.25902 8.08214 7.28857 8.15069 7.31002 8.20046C7.31809 8.21917 7.32501 8.23523 7.32838 8.24535L7.34544 8.29748C7.35897 8.33906 7.37606 8.39156 7.39006 8.43246L7.22969 8.31596C7.22098 8.3098 7.20705 8.29737 7.19077 8.28284C7.15105 8.2474 7.09733 8.19946 7.07108 8.19946C7.04464 8.19946 6.98942 8.24811 6.94912 8.28362C6.933 8.29781 6.91927 8.30991 6.91071 8.31596L6.7521 8.43246L6.81202 8.24535C6.8154 8.23521 6.82247 8.21912 6.8307 8.20038C6.85257 8.15061 6.88266 8.08212 6.8737 8.05648C6.86479 8.03097 6.80161 7.99349 6.75526 7.966L6.75526 7.96599C6.73745 7.95543 6.72214 7.94635 6.71333 7.93998L6.55472 7.82524H6.7521ZM1.80061 8.91244L1.80062 8.91243C1.82009 8.90102 1.83687 8.89119 1.8458 8.88435L2.00441 8.76961H1.80703C1.79684 8.76961 1.77982 8.77135 1.75985 8.7734C1.70733 8.77877 1.6344 8.78624 1.61142 8.76961C1.58899 8.75339 1.57361 8.68335 1.56216 8.63122C1.55742 8.60961 1.55335 8.59108 1.54974 8.58074L1.48982 8.39363C1.47924 8.42452 1.46911 8.45585 1.45898 8.48718C1.44884 8.51851 1.43871 8.54985 1.42814 8.58074C1.4254 8.58986 1.4222 8.60534 1.41841 8.62368C1.40752 8.67634 1.39174 8.75259 1.36822 8.76961C1.34521 8.78626 1.2712 8.77876 1.21816 8.77338C1.19808 8.77134 1.181 8.76961 1.17084 8.76961H0.973456L1.13383 8.88435C1.14269 8.89114 1.15912 8.90102 1.17818 8.91249C1.22352 8.93976 1.28375 8.97599 1.29244 9.00085C1.30117 9.02586 1.27277 9.09161 1.25171 9.14038C1.24303 9.16046 1.2356 9.17766 1.23252 9.18796L1.2198 9.22602L1.21979 9.22606L1.21978 9.22608L1.21977 9.22611L1.21977 9.22613L1.21976 9.22614C1.20293 9.27645 1.18632 9.32608 1.17084 9.37683L1.32945 9.26033C1.33689 9.25463 1.34824 9.24458 1.36168 9.23268L1.3617 9.23266C1.40235 9.19666 1.46201 9.14383 1.48982 9.14383C1.51736 9.14383 1.57518 9.19567 1.6153 9.23164C1.62908 9.24399 1.64077 9.25447 1.64842 9.26033L1.8088 9.37683L1.79608 9.33877C1.77923 9.28843 1.76261 9.23876 1.74711 9.18796C1.74392 9.17883 1.73743 9.16439 1.72978 9.14735L1.72977 9.14734C1.70782 9.0985 1.67629 9.02833 1.68543 9.00085C1.69409 8.97484 1.7548 8.93927 1.80061 8.91244ZM1.8458 6.99031C1.83777 6.99599 1.82338 7.00434 1.8064 7.01421C1.7601 7.0411 1.69446 7.07921 1.68543 7.10505C1.67623 7.13138 1.70821 7.20388 1.73018 7.25367L1.73018 7.25368C1.73766 7.27063 1.74398 7.28495 1.74711 7.29392C1.75293 7.31057 1.76228 7.33941 1.77276 7.3717L1.77276 7.37172C1.78449 7.40788 1.79763 7.4484 1.8088 7.48103L1.64842 7.36453C1.63971 7.35837 1.62579 7.34594 1.60951 7.33142L1.6095 7.33141C1.56979 7.29597 1.51606 7.24803 1.48982 7.24803C1.46338 7.24803 1.40816 7.29667 1.36785 7.33218L1.36784 7.33219C1.35173 7.34638 1.338 7.35848 1.32945 7.36453L1.17084 7.48103C1.19022 7.41925 1.21137 7.3557 1.23252 7.29392C1.23896 7.2751 1.24818 7.25366 1.25754 7.2319C1.27891 7.18221 1.30102 7.13082 1.29244 7.10505C1.28336 7.07777 1.218 7.03999 1.17216 7.01349L1.17216 7.01349L1.17213 7.01347C1.15567 7.00396 1.14174 6.9959 1.13383 6.99031L0.973456 6.87734H1.17084C1.181 6.87734 1.19808 6.87907 1.21816 6.8811C1.2712 6.88648 1.34521 6.89398 1.36822 6.87734C1.3918 6.86027 1.4076 6.78465 1.41849 6.73247C1.42225 6.71448 1.42542 6.69928 1.42814 6.69023L1.48982 6.50135C1.49951 6.53312 1.50964 6.56445 1.51977 6.59577L1.51978 6.59579L1.51978 6.59581C1.52991 6.62714 1.54004 6.65846 1.54974 6.69023C1.55333 6.70051 1.55737 6.71887 1.56208 6.74027C1.57353 6.79233 1.58893 6.86232 1.61142 6.87734C1.6344 6.89268 1.70733 6.88579 1.75985 6.88083C1.77982 6.87895 1.79684 6.87734 1.80703 6.87734H2.00441L1.8458 6.99031ZM5.68064 3.09126C5.6604 3.08922 5.64319 3.08749 5.63303 3.08749L5.43565 3.09279L5.59602 3.20929C5.60408 3.21498 5.61863 3.22323 5.63581 3.23297C5.68253 3.25944 5.74866 3.29692 5.75639 3.32402C5.76429 3.35171 5.73286 3.4237 5.71131 3.47309C5.704 3.48982 5.69783 3.50396 5.69471 3.5129C5.68414 3.54379 5.674 3.57512 5.66387 3.60646L5.66387 3.60647L5.66386 3.60648L5.66386 3.60649L5.66385 3.6065L5.66385 3.60652L5.66384 3.60653L5.66384 3.60654L5.66384 3.60655L5.66383 3.60656L5.66383 3.60658L5.66382 3.60659L5.66382 3.6066L5.66381 3.60661L5.66381 3.60663C5.6537 3.6379 5.64358 3.66917 5.63303 3.70001L5.7934 3.57821C5.80209 3.57207 5.81581 3.55969 5.83187 3.54521L5.83187 3.54521C5.87119 3.50976 5.92448 3.46171 5.95201 3.46171C5.97973 3.46171 6.03448 3.51044 6.07438 3.54596C6.09029 3.56011 6.10384 3.57217 6.11238 3.57821L6.27099 3.69471C6.2516 3.63293 6.23046 3.56938 6.20931 3.5076C6.20618 3.49717 6.19845 3.47951 6.18941 3.45888L6.18941 3.45887C6.16786 3.40966 6.13893 3.3436 6.14763 3.31873C6.15665 3.2929 6.22229 3.25478 6.2686 3.22789C6.28558 3.21803 6.29996 3.20968 6.308 3.20399L6.46837 3.08749H6.27099C6.26082 3.08749 6.24361 3.08909 6.22337 3.09097C6.16992 3.09593 6.09534 3.10285 6.07361 3.08749C6.05129 3.07171 6.03485 2.99522 6.02354 2.94263L6.02353 2.94262L6.02353 2.94258C6.01965 2.92458 6.01639 2.90938 6.01369 2.90038L5.95201 2.71151C5.94232 2.74328 5.93219 2.7746 5.92205 2.80593L5.92205 2.80594C5.91192 2.83728 5.90178 2.86861 5.89209 2.90038C5.88848 2.91071 5.88426 2.92906 5.87936 2.95042C5.8675 3.00204 5.8516 3.07126 5.83041 3.08749C5.80868 3.10413 5.7341 3.09663 5.68064 3.09126ZM5.63303 4.9833C5.64319 4.9833 5.6604 4.98503 5.68064 4.98706C5.7341 4.99244 5.80868 4.99994 5.83041 4.9833C5.85155 4.96711 5.86742 4.89731 5.87927 4.84521C5.88422 4.82347 5.88846 4.80482 5.89209 4.79442L5.95201 4.60731C5.96258 4.6382 5.97272 4.66954 5.98285 4.70087L5.98287 4.70094C5.993 4.73225 6.00312 4.76356 6.01369 4.79442C6.02124 4.81648 6.02722 4.84394 6.03315 4.87117C6.04383 4.92022 6.05435 4.96854 6.07361 4.9833C6.09534 4.99994 6.16992 4.99244 6.22337 4.98706C6.24361 4.98503 6.26082 4.9833 6.27099 4.9833H6.46837L6.308 5.0998C6.29906 5.10665 6.28228 5.11648 6.2628 5.12789C6.21699 5.15472 6.15628 5.19029 6.14763 5.2163C6.13896 5.24234 6.16769 5.3067 6.18921 5.35494C6.19833 5.37537 6.20616 5.39291 6.20931 5.40341L6.22202 5.44148C6.23887 5.49182 6.25549 5.54149 6.27099 5.59229L6.11238 5.47578C6.10491 5.47006 6.0936 5.45994 6.08023 5.44799L6.08021 5.44797L6.08019 5.44795L6.08015 5.44791L6.08013 5.4479L6.08012 5.44789C6.03989 5.4119 5.98108 5.35928 5.95201 5.35928C5.92319 5.35928 5.86615 5.41096 5.82645 5.44692C5.81274 5.45934 5.80109 5.46989 5.7934 5.47578L5.63303 5.59229L5.69471 5.40341C5.69788 5.39435 5.70417 5.37994 5.71161 5.36293C5.73316 5.31366 5.76425 5.24255 5.75639 5.2163C5.74898 5.19155 5.68786 5.15552 5.64166 5.12829C5.62196 5.11667 5.60498 5.10666 5.59602 5.0998L5.43565 4.9833H5.63303ZM5.68065 6.8811C5.66041 6.87907 5.64319 6.87734 5.63303 6.87734H5.43741L5.59602 6.99384C5.60407 6.99953 5.61861 7.00777 5.63577 7.01749L5.63578 7.0175L5.6358 7.01751L5.63581 7.01752C5.68253 7.044 5.74866 7.08148 5.75639 7.10858C5.76365 7.13401 5.74187 7.18437 5.72065 7.23343C5.71094 7.25588 5.70135 7.27806 5.69471 7.29745C5.68414 7.32834 5.67401 7.35967 5.66387 7.391C5.65374 7.42233 5.6436 7.45367 5.63303 7.48456L5.7934 7.36806C5.80209 7.36192 5.81581 7.34954 5.83187 7.33506C5.87119 7.29961 5.92448 7.25156 5.95201 7.25156C5.97973 7.25156 6.03448 7.30029 6.07439 7.3358C6.09029 7.34996 6.10384 7.36202 6.11238 7.36806L6.27099 7.48456C6.26112 7.4531 6.24805 7.41431 6.2362 7.37916L6.23614 7.37899L6.23614 7.37897C6.22474 7.34517 6.21449 7.31474 6.20931 7.29745C6.20618 7.28702 6.19845 7.26935 6.18941 7.24872C6.16786 7.19951 6.13893 7.13345 6.14763 7.10858C6.15665 7.08275 6.22229 7.04463 6.26859 7.01774L6.26862 7.01772L6.26869 7.01768L6.26874 7.01765L6.26878 7.01763L6.2688 7.01762C6.28569 7.00781 6.29999 6.9995 6.308 6.99384L6.46837 6.87734H6.27099C6.26082 6.87734 6.24361 6.87894 6.22337 6.88081C6.16992 6.88578 6.09534 6.8927 6.07361 6.87734C6.0513 6.86156 6.03485 6.78507 6.02354 6.73247C6.01966 6.71445 6.01639 6.69924 6.01369 6.69023L5.95201 6.50135C5.94232 6.53312 5.93218 6.56445 5.92205 6.59578L5.92202 6.59589C5.9119 6.62719 5.90177 6.65849 5.89209 6.69023C5.88848 6.70056 5.88427 6.71891 5.87936 6.74026C5.8675 6.79188 5.8516 6.86111 5.83041 6.87734C5.80868 6.89398 5.7341 6.88648 5.68065 6.8811ZM5.63303 8.77314C5.64319 8.77314 5.6604 8.77488 5.68064 8.77691C5.7341 8.78229 5.80868 8.78979 5.83041 8.77314C5.85155 8.75695 5.86742 8.68715 5.87927 8.63505C5.88422 8.61332 5.88846 8.59466 5.89209 8.58427L5.95201 8.39716C5.96258 8.42805 5.97272 8.45938 5.98285 8.49072L5.98287 8.49079C5.993 8.5221 6.00312 8.5534 6.01369 8.58427C6.01641 8.59334 6.01971 8.60871 6.02362 8.62693C6.03493 8.6796 6.05135 8.75609 6.07361 8.77314C6.09534 8.78979 6.16992 8.78229 6.22337 8.77691C6.24361 8.77488 6.26082 8.77314 6.27099 8.77314H6.46837L6.308 8.88788C6.29906 8.89473 6.28228 8.90456 6.26281 8.91596L6.2628 8.91597C6.21699 8.94281 6.15628 8.97837 6.14763 9.00438C6.13896 9.03042 6.16769 9.09478 6.18921 9.14302C6.19833 9.16345 6.20616 9.18099 6.20931 9.19149L6.22202 9.22955C6.23887 9.2799 6.25549 9.32957 6.27099 9.38037L6.11238 9.26387C6.10489 9.25813 6.09354 9.24797 6.08012 9.23597C6.03989 9.19998 5.98108 9.14736 5.95201 9.14736C5.92319 9.14736 5.86615 9.19904 5.82645 9.235L5.82643 9.23502L5.82641 9.23504C5.81272 9.24745 5.80109 9.25798 5.7934 9.26387L5.63303 9.38037L5.69471 9.19149C5.69788 9.18243 5.70418 9.16803 5.71161 9.15101C5.73316 9.10174 5.76425 9.03063 5.75639 9.00438C5.74898 8.97963 5.68786 8.94361 5.64166 8.91637C5.62196 8.90476 5.60498 8.89474 5.59602 8.88788C5.56606 8.86493 5.49028 8.81021 5.43565 8.77314H5.63303ZM4.56686 2.14335C4.54662 2.14132 4.52941 2.13958 4.51924 2.13958L4.32186 2.13605L4.48223 2.25256C4.49014 2.25815 4.50407 2.2662 4.52051 2.27571L4.52053 2.27571L4.52056 2.27573L4.52057 2.27574C4.56641 2.30224 4.63177 2.34002 4.64084 2.36729C4.64962 2.39367 4.62091 2.46029 4.59981 2.50924L4.59981 2.50924L4.59981 2.50925L4.5998 2.50927L4.59979 2.5093C4.59125 2.5291 4.58397 2.546 4.58092 2.55617C4.55978 2.61795 4.53863 2.6815 4.51924 2.74328L4.67785 2.62677C4.68641 2.62073 4.70014 2.60863 4.71625 2.59443C4.75656 2.55892 4.81178 2.51027 4.83822 2.51027C4.86447 2.51027 4.91819 2.55822 4.95791 2.59365L4.95792 2.59366C4.9742 2.60819 4.98812 2.62062 4.99683 2.62677L5.1572 2.74328C5.14664 2.71243 5.13652 2.68114 5.12641 2.64985L5.1264 2.64983L5.1264 2.64982L5.12639 2.64981L5.12639 2.6498L5.12638 2.64978L5.12638 2.64977L5.12638 2.64976L5.12637 2.64975L5.12637 2.64974L5.12636 2.64972C5.11623 2.61839 5.1061 2.58706 5.09552 2.55617C5.09239 2.5472 5.08607 2.53287 5.07859 2.51591C5.05662 2.46612 5.02464 2.39363 5.03384 2.36729C5.04287 2.34146 5.1085 2.30334 5.15481 2.27645L5.15482 2.27645C5.1718 2.26659 5.18617 2.25824 5.19421 2.25256L5.35458 2.13605H5.1572C5.14704 2.13605 5.12996 2.13778 5.10988 2.13982L5.10988 2.13982C5.05684 2.1452 4.98283 2.1527 4.95982 2.13605C4.9374 2.11983 4.92202 2.04979 4.91057 1.99766C4.90583 1.97605 4.90176 1.95752 4.89814 1.94718C4.88845 1.91541 4.87832 1.88407 4.86818 1.85274C4.85805 1.82141 4.84792 1.79008 4.83822 1.75831L4.77654 1.95071C4.77382 1.95978 4.77053 1.97515 4.76661 1.99337C4.75531 2.04604 4.73888 2.12253 4.71662 2.13958C4.69489 2.15623 4.62031 2.14873 4.56686 2.14335ZM4.51924 4.03539C4.52941 4.03539 4.54662 4.03712 4.56686 4.03916L4.56686 4.03916C4.62032 4.04454 4.69489 4.05204 4.71662 4.03539C4.73895 4.01829 4.7554 3.94238 4.76671 3.8902C4.77058 3.87235 4.77385 3.85728 4.77654 3.84828L4.83822 3.65941C4.84792 3.69118 4.85805 3.72252 4.86818 3.75385L4.86819 3.75386C4.87832 3.78519 4.88845 3.81652 4.89814 3.84828C4.90173 3.85856 4.90577 3.87692 4.91048 3.8983L4.91048 3.89831L4.91048 3.89832L4.91048 3.89832C4.92194 3.95039 4.93734 4.02038 4.95982 4.03539C4.98283 4.05076 5.05684 4.04383 5.10988 4.03887C5.12996 4.03699 5.14704 4.03539 5.1572 4.03539H5.35458L5.19421 4.15013C5.18523 4.15701 5.16833 4.16706 5.14873 4.17872L5.14872 4.17872C5.10295 4.20595 5.04248 4.24191 5.03384 4.26663C5.02469 4.29282 5.05628 4.36371 5.07823 4.41298C5.08587 4.43011 5.09234 4.44463 5.09552 4.45374L5.1572 4.64262L4.99683 4.52611C4.98917 4.52025 4.97749 4.50977 4.96371 4.49742C4.92359 4.46145 4.86577 4.40961 4.83822 4.40961C4.81041 4.40961 4.75076 4.46244 4.71011 4.49844L4.7101 4.49844L4.7101 4.49845L4.71004 4.4985C4.69662 4.51038 4.68529 4.52042 4.67785 4.52611L4.51924 4.64262C4.53473 4.59184 4.55135 4.54219 4.56819 4.49187L4.5682 4.49183L4.58092 4.45374C4.584 4.44346 4.59141 4.42645 4.60007 4.40658L4.60007 4.40658C4.62114 4.35821 4.64959 4.29291 4.64084 4.26663C4.63214 4.24049 4.57172 4.20468 4.52635 4.1778C4.50739 4.16657 4.49106 4.15689 4.48223 4.15013C4.46669 4.13822 4.43832 4.11823 4.40724 4.09632L4.40721 4.0963C4.37841 4.076 4.34728 4.05407 4.32186 4.03539H4.51924ZM4.56686 5.93468C4.54662 5.9328 4.52941 5.9312 4.51924 5.9312H4.32186L4.48223 6.0477C4.48987 6.0531 4.50311 6.06102 4.5188 6.0704C4.56471 6.09786 4.63165 6.13789 4.64084 6.1642C4.64958 6.18921 4.62118 6.25496 4.60011 6.30374C4.59144 6.32381 4.58401 6.34102 4.58092 6.35131L4.5682 6.3894L4.56819 6.38944C4.55135 6.43977 4.53473 6.48941 4.51924 6.54019L4.67785 6.42369C4.68529 6.41799 4.69662 6.40795 4.71004 6.39607L4.7101 6.39602L4.7101 6.39602C4.75075 6.36002 4.81041 6.30718 4.83822 6.30718C4.86577 6.30718 4.92359 6.35902 4.96371 6.39499C4.97749 6.40734 4.98917 6.41782 4.99683 6.42369L5.1572 6.54019L5.09552 6.35131C5.09233 6.34218 5.08584 6.32774 5.07818 6.31069C5.05623 6.26185 5.0247 6.19168 5.03384 6.1642C5.04296 6.13681 5.10983 6.09784 5.1562 6.07082C5.17258 6.06128 5.18639 6.05323 5.19421 6.0477L5.35458 5.9312H5.1572C5.14704 5.9312 5.12996 5.93293 5.10988 5.93497C5.05684 5.94034 4.98283 5.94784 4.95982 5.9312C4.9374 5.91498 4.92202 5.84494 4.91057 5.79281C4.90583 5.7712 4.90176 5.75267 4.89814 5.74232C4.88845 5.71055 4.87832 5.67922 4.86818 5.64789C4.85805 5.61656 4.84792 5.58522 4.83822 5.55345L4.77654 5.74232C4.77382 5.75141 4.77052 5.76692 4.7666 5.78531C4.75529 5.83839 4.73887 5.91547 4.71662 5.9312C4.69489 5.94656 4.62031 5.93964 4.56686 5.93468ZM4.51924 7.82524C4.52941 7.82524 4.54662 7.82697 4.56686 7.82901C4.62031 7.83438 4.69489 7.84189 4.71662 7.82524C4.73895 7.80814 4.7554 7.73223 4.76671 7.68004C4.77058 7.6622 4.77385 7.64713 4.77654 7.63813C4.78565 7.61076 4.79443 7.58339 4.80317 7.55616L4.80319 7.55608C4.81473 7.52012 4.82619 7.4844 4.83822 7.44926C4.84606 7.47422 4.85418 7.49947 4.86235 7.52489L4.86236 7.5249L4.86236 7.52492L4.86237 7.52494L4.86237 7.52495L4.86238 7.52497L4.86238 7.52499L4.86242 7.52509C4.87445 7.56252 4.88661 7.60033 4.89814 7.63813C4.90173 7.64841 4.90577 7.66677 4.91048 7.68816L4.91048 7.68817C4.92194 7.74023 4.93734 7.81023 4.95982 7.82524C4.98283 7.8406 5.05684 7.83368 5.10988 7.82872C5.12996 7.82684 5.14704 7.82524 5.1572 7.82524H5.35458L5.19421 7.93998C5.18523 7.94686 5.16832 7.95691 5.14872 7.96857C5.10295 7.99579 5.04248 8.03176 5.03384 8.05648C5.02488 8.08212 5.05497 8.15061 5.07684 8.20038C5.08508 8.21912 5.09215 8.23521 5.09552 8.24535L5.11258 8.29748L5.1126 8.29754C5.12613 8.3391 5.14321 8.39158 5.1572 8.43246L4.99683 8.31596C4.98812 8.3098 4.97419 8.29737 4.95791 8.28284C4.91819 8.2474 4.86447 8.19946 4.83822 8.19946C4.81179 8.19946 4.75657 8.2481 4.71626 8.28361L4.71626 8.28362C4.70014 8.29781 4.68641 8.30991 4.67785 8.31596L4.51924 8.43246C4.53863 8.37068 4.55978 8.30714 4.58092 8.24535C4.58734 8.2266 4.59652 8.20509 4.60585 8.18323L4.60585 8.18321L4.60586 8.18319C4.62726 8.13304 4.64943 8.08106 4.64084 8.05648C4.63216 8.03162 4.57193 7.99539 4.52658 7.96811L4.52658 7.96811C4.50752 7.95665 4.4911 7.94677 4.48223 7.93998C4.46668 7.92807 4.43831 7.90807 4.40722 7.88616L4.40721 7.88615L4.4072 7.88614C4.37841 7.86585 4.34728 7.84391 4.32186 7.82524H4.51924ZM3.45102 3.09126H3.45102C3.43093 3.08922 3.41386 3.08749 3.40369 3.08749L3.21336 3.09279L3.37197 3.20929C3.38002 3.21498 3.39443 3.22322 3.41144 3.23295C3.45775 3.25942 3.52332 3.29692 3.53234 3.32402C3.54153 3.35165 3.50962 3.42339 3.48766 3.47276C3.48015 3.48964 3.4738 3.50391 3.47066 3.5129C3.45127 3.57468 3.43013 3.63823 3.40898 3.70001L3.56935 3.58351C3.57804 3.57736 3.59176 3.56499 3.60782 3.55051C3.64714 3.51506 3.70043 3.467 3.72796 3.467C3.75568 3.467 3.81043 3.51573 3.85033 3.55125C3.86624 3.56541 3.87979 3.57747 3.88833 3.58351L4.04694 3.70001L3.97997 3.5076C3.97686 3.49869 3.97071 3.4845 3.96344 3.4677C3.94188 3.4179 3.91038 3.34512 3.91829 3.31873C3.92629 3.292 3.99591 3.25212 4.04303 3.22513L4.04304 3.22513C4.05815 3.21647 4.07095 3.20914 4.07866 3.20399L4.23727 3.08749H4.03989C4.02972 3.08749 4.01251 3.08909 3.99227 3.09097C3.93882 3.09593 3.86424 3.10285 3.84251 3.08749C3.82019 3.07171 3.80375 2.99523 3.79244 2.94263L3.79244 2.94263L3.79243 2.94262L3.79243 2.94262C3.78856 2.9246 3.78529 2.90939 3.78259 2.90038L3.72091 2.71151C3.71122 2.74328 3.70108 2.77461 3.69095 2.80594L3.69095 2.80595C3.68081 2.83728 3.67068 2.86861 3.66099 2.90038C3.65828 2.90943 3.6551 2.92463 3.65135 2.94262C3.64045 2.9948 3.62466 3.07043 3.60107 3.08749C3.57806 3.10413 3.50406 3.09663 3.45102 3.09126ZM3.4037 4.9833C3.41386 4.9833 3.43094 4.98503 3.45102 4.98706C3.50406 4.99244 3.57807 4.99994 3.60108 4.9833C3.6246 4.96628 3.64037 4.89002 3.65127 4.83736L3.65127 4.83736L3.65127 4.83734C3.65506 4.81901 3.65826 4.80354 3.66099 4.79442L3.72091 4.60731C3.73149 4.6382 3.74162 4.66954 3.75175 4.70087C3.76189 4.7322 3.77202 4.76353 3.78259 4.79442C3.79014 4.81648 3.79612 4.84394 3.80205 4.87117L3.80205 4.87117C3.81273 4.92022 3.82325 4.96854 3.84251 4.9833C3.86424 4.99994 3.93882 4.99244 3.99228 4.98706C4.01252 4.98503 4.02973 4.9833 4.03989 4.9833H4.23727L4.07866 5.0998C4.06985 5.10617 4.05438 5.11513 4.0364 5.12555L4.0364 5.12555L4.03639 5.12555C3.98964 5.15263 3.92593 5.18953 3.91829 5.2163C3.91044 5.24383 3.94147 5.31421 3.96301 5.36306L3.96301 5.36307C3.97048 5.37999 3.9768 5.39433 3.97997 5.40341C3.98967 5.43518 3.9998 5.46652 4.00993 5.49785C4.02007 5.52918 4.0302 5.56051 4.03989 5.59229L3.88128 5.47578C3.87379 5.47005 3.86245 5.45989 3.84903 5.44789L3.84903 5.44789C3.8088 5.4119 3.74999 5.35928 3.72091 5.35928C3.6921 5.35928 3.63505 5.41096 3.59536 5.44692C3.58164 5.45934 3.57 5.46989 3.5623 5.47578L3.40193 5.59229L3.41465 5.55422C3.4315 5.50388 3.44812 5.45421 3.46361 5.40341C3.4668 5.3943 3.47327 5.37978 3.4809 5.36264C3.50286 5.31338 3.53445 5.24249 3.5253 5.2163C3.51666 5.19158 3.45619 5.15562 3.41042 5.12839L3.41041 5.12839C3.39081 5.11673 3.37391 5.10668 3.36492 5.0998L3.20632 4.9833H3.4037ZM3.45102 6.8811C3.43093 6.87907 3.41386 6.87734 3.40369 6.87734H3.21336L3.37197 6.99384C3.38002 6.99953 3.39443 7.00777 3.41144 7.0175C3.45775 7.04398 3.52332 7.08147 3.53234 7.10858C3.54044 7.13292 3.51966 7.18011 3.49894 7.22714C3.48812 7.25172 3.47731 7.27625 3.47066 7.29745C3.45127 7.35923 3.43013 7.42278 3.40898 7.48456L3.56935 7.36806C3.57804 7.36192 3.59176 7.34954 3.60782 7.33506C3.64714 7.29961 3.70043 7.25156 3.72796 7.25156C3.75568 7.25156 3.81043 7.30029 3.85034 7.3358C3.86624 7.34996 3.87979 7.36202 3.88833 7.36806L4.04694 7.48456L3.97997 7.29745C3.97686 7.28854 3.97071 7.27435 3.96344 7.25754C3.94188 7.20774 3.91038 7.13497 3.91829 7.10858C3.92629 7.08185 3.99591 7.04197 4.04303 7.01498L4.04305 7.01497L4.04307 7.01496L4.04307 7.01496L4.0431 7.01494C4.05819 7.00629 4.07097 6.99898 4.07866 6.99384L4.23727 6.87734H4.03989C4.02972 6.87734 4.01251 6.87894 3.99227 6.88081C3.93882 6.88578 3.86424 6.8927 3.84251 6.87734C3.8202 6.86156 3.80375 6.78508 3.79244 6.73248L3.79244 6.73248L3.79244 6.73247C3.78856 6.71445 3.78529 6.69924 3.78259 6.69023L3.72091 6.50135C3.71123 6.53307 3.70112 6.56435 3.691 6.59563L3.69099 6.59567L3.69097 6.59571L3.69096 6.59575L3.69095 6.59579C3.68082 6.62712 3.67068 6.65845 3.66099 6.69023C3.65828 6.69928 3.6551 6.71448 3.65135 6.73247C3.64045 6.78465 3.62466 6.86027 3.60107 6.87734C3.57806 6.89398 3.50406 6.88648 3.45102 6.8811ZM2.96135 7.93645C2.95237 7.94333 2.93547 7.95338 2.91586 7.96504L2.91586 7.96504C2.87009 7.99226 2.80962 8.02823 2.80098 8.05295C2.79248 8.07729 2.81999 8.14023 2.84137 8.18912L2.84137 8.18913C2.851 8.21114 2.85938 8.23031 2.86266 8.24182C2.87324 8.27889 2.9032 8.36715 2.92434 8.42893L2.76574 8.31243C2.75588 8.30585 2.74042 8.29212 2.72262 8.27632C2.68312 8.24123 2.63209 8.19593 2.60536 8.19593C2.57784 8.19593 2.52454 8.24398 2.48523 8.27943L2.48522 8.27944L2.48521 8.27945C2.46916 8.29392 2.45544 8.30629 2.44676 8.31243L2.28638 8.42893C2.29696 8.39804 2.30709 8.36671 2.31723 8.33538C2.32736 8.30405 2.33749 8.27271 2.34807 8.24182C2.35469 8.22247 2.36426 8.20016 2.37395 8.17758C2.39518 8.12807 2.41701 8.07719 2.40975 8.05295C2.40242 8.02847 2.3451 7.99466 2.29889 7.9674L2.29888 7.96739L2.29885 7.96738C2.27843 7.95533 2.26018 7.94456 2.24938 7.93645L2.089 7.82171H2.28462C2.29479 7.82171 2.31266 7.82344 2.33368 7.82548C2.3892 7.83085 2.46666 7.83835 2.482 7.82171C2.49674 7.80571 2.51491 7.73827 2.52874 7.68691C2.53475 7.66458 2.53995 7.6453 2.54368 7.6346C2.55524 7.59673 2.56741 7.55886 2.57947 7.52136L2.57947 7.52136L2.57948 7.52135L2.57948 7.52135L2.57949 7.5213C2.58766 7.4959 2.59578 7.47067 2.6036 7.44572C2.61142 7.47065 2.61953 7.49586 2.62769 7.52125L2.62773 7.52136L2.62774 7.52137C2.63979 7.55887 2.65197 7.59673 2.66352 7.6346C2.66711 7.64488 2.67115 7.66325 2.67586 7.68464C2.68732 7.7367 2.70272 7.8067 2.7252 7.82171C2.74821 7.83707 2.82222 7.83015 2.87525 7.82519C2.89534 7.82331 2.91242 7.82171 2.92258 7.82171H3.11996L2.96135 7.93645ZM2.92334 6.06552L2.92335 6.06552L2.92337 6.06551C2.93973 6.05598 2.95354 6.04793 2.96135 6.0424L3.11996 5.92767H2.92258C2.91242 5.92767 2.89534 5.9294 2.87525 5.93143C2.82222 5.93681 2.74821 5.94431 2.7252 5.92767C2.70278 5.91144 2.6874 5.8414 2.67595 5.78928C2.6712 5.76767 2.66714 5.74914 2.66352 5.73879C2.65384 5.70705 2.64371 5.67574 2.63359 5.64443L2.63357 5.64439L2.63356 5.64436C2.62343 5.61302 2.61329 5.58169 2.6036 5.54992C2.59391 5.58169 2.58378 5.61302 2.57364 5.64435C2.56351 5.67568 2.55338 5.70702 2.54368 5.73879C2.53992 5.74957 2.53468 5.76937 2.52861 5.79231C2.5148 5.84453 2.4967 5.91295 2.482 5.92767C2.46666 5.94303 2.3892 5.93611 2.33368 5.93114C2.31266 5.92927 2.29479 5.92767 2.28462 5.92767H2.089L2.24938 6.04417C2.25718 6.04969 2.27109 6.05785 2.28758 6.06751C2.33437 6.09495 2.40193 6.13457 2.40975 6.16067C2.41715 6.18539 2.38914 6.2499 2.36804 6.29848C2.35901 6.3193 2.35124 6.33719 2.34807 6.34778L2.28638 6.53489C2.30918 6.51814 2.33657 6.49844 2.36275 6.47961C2.39728 6.45477 2.42971 6.43144 2.44676 6.41839C2.45445 6.4125 2.46609 6.40195 2.47981 6.38952C2.5195 6.35356 2.57655 6.30189 2.60536 6.30189C2.63322 6.30189 2.68746 6.35019 2.72756 6.38589C2.74327 6.39988 2.75681 6.41193 2.76574 6.41839L2.92434 6.53489L2.86266 6.34602C2.85952 6.33551 2.85169 6.31797 2.84257 6.29754C2.82104 6.24931 2.79232 6.18495 2.80098 6.15891C2.8101 6.13151 2.87697 6.09255 2.92334 6.06552ZM2.96135 4.1466C2.95237 4.15348 2.93547 4.16353 2.91586 4.17519C2.87009 4.20241 2.80962 4.23838 2.80098 4.2631C2.79232 4.28787 2.82099 4.35264 2.84251 4.40126C2.85165 4.42193 2.85951 4.43968 2.86266 4.45021L2.92434 4.63908L2.76574 4.52258C2.75681 4.51612 2.74327 4.50407 2.72756 4.49008C2.68746 4.45438 2.63322 4.40608 2.60536 4.40608C2.57655 4.40608 2.5195 4.45776 2.47981 4.49372C2.46609 4.50614 2.45445 4.51669 2.44676 4.52258L2.28638 4.63908L2.34807 4.45021C2.35123 4.43965 2.35897 4.42198 2.36797 4.40141L2.36797 4.4014C2.38908 4.35321 2.41716 4.28908 2.40975 4.2631C2.40232 4.23706 2.34098 4.20144 2.29475 4.1746L2.29475 4.1746C2.27516 4.16322 2.25829 4.15343 2.24938 4.1466L2.089 4.03186H2.28462C2.29479 4.03186 2.31266 4.03359 2.33368 4.03563L2.33369 4.03563C2.38921 4.04101 2.46666 4.04851 2.482 4.03186C2.49674 4.01587 2.51491 3.94842 2.52874 3.89706L2.52874 3.89706C2.53475 3.87473 2.53995 3.85545 2.54368 3.84475C2.55338 3.81298 2.56351 3.78165 2.57364 3.75032L2.57364 3.75031C2.58378 3.71898 2.59391 3.68765 2.6036 3.65588C2.61329 3.68765 2.62343 3.71898 2.63356 3.75032L2.63358 3.75037C2.64371 3.78168 2.65383 3.813 2.66352 3.84475C2.66711 3.85503 2.67115 3.8734 2.67586 3.89479C2.68732 3.94685 2.70272 4.01685 2.7252 4.03186C2.74821 4.04723 2.82222 4.0403 2.87525 4.03534C2.89534 4.03346 2.91242 4.03186 2.92258 4.03186H3.11996L2.96135 4.1466ZM3.20632 8.76961L3.36492 8.88435V8.88788C3.37427 8.89504 3.3922 8.9053 3.41282 8.91709C3.45828 8.94309 3.51681 8.97656 3.5253 9.00085C3.53445 9.02704 3.50286 9.09793 3.48091 9.14719C3.47327 9.16433 3.4668 9.17885 3.46361 9.18796C3.44812 9.23876 3.43149 9.28844 3.41464 9.33879C3.41042 9.35142 3.40617 9.36409 3.40193 9.37683L3.5623 9.26033C3.57 9.25444 3.58164 9.24389 3.59536 9.23147C3.63505 9.19551 3.6921 9.14383 3.72091 9.14383C3.74999 9.14383 3.8088 9.19645 3.84903 9.23244C3.86244 9.24444 3.87379 9.25459 3.88128 9.26033L4.03989 9.37683C4.0302 9.34506 4.02007 9.31373 4.00993 9.2824C3.9998 9.25107 3.98967 9.21973 3.97997 9.18796C3.9768 9.17888 3.97048 9.16453 3.96301 9.14761C3.94147 9.09875 3.91044 9.02838 3.91829 9.00085C3.92593 8.97408 3.98965 8.93717 4.0364 8.91009C4.05438 8.89968 4.06985 8.89072 4.07866 8.88435L4.23727 8.76961H4.03989C4.02973 8.76961 4.01252 8.77134 3.99228 8.77338C3.93882 8.77876 3.86424 8.78626 3.84251 8.76961C3.82025 8.75256 3.80383 8.67607 3.79252 8.62339C3.78861 8.60518 3.78531 8.58981 3.78259 8.58074C3.77202 8.54985 3.76189 8.51851 3.75175 8.48718C3.74162 8.45585 3.73149 8.42452 3.72091 8.39363L3.66099 8.58074C3.65826 8.58986 3.65506 8.60534 3.65127 8.62368C3.64037 8.67634 3.6246 8.75259 3.60108 8.76961C3.57807 8.78626 3.50406 8.77876 3.45102 8.77338C3.43094 8.77134 3.41386 8.76961 3.4037 8.76961H3.20632Z" fill="#0437A0"/>
<path fill-rule="evenodd" clip-rule="evenodd" d="M1.2925 5.21453C1.30483 5.24983 1.24315 5.36633 1.23258 5.40164C1.21143 5.46518 1.19028 5.52696 1.1709 5.59051L1.32951 5.47401C1.35947 5.45106 1.45111 5.35751 1.48988 5.35751C1.52865 5.35751 1.61853 5.45106 1.64849 5.47401L1.80886 5.59051C1.78771 5.52696 1.76656 5.46518 1.74718 5.40164C1.73484 5.36633 1.67316 5.24983 1.6855 5.21453C1.69783 5.17922 1.81591 5.12097 1.84587 5.09802L2.00448 4.98152H1.8071C1.77009 4.98152 1.64144 5.00447 1.61148 4.98152C1.58152 4.95857 1.56213 4.82795 1.5498 4.79265L1.53394 4.74499C1.44758 4.89503 1.3577 5.0486 1.28721 5.20217C1.28897 5.20747 1.2925 5.211 1.2925 5.21453Z" fill="#F4F4F4"/>
<path fill-rule="evenodd" clip-rule="evenodd" d="M5.89382 1.00456C5.88148 1.03986 5.86386 1.17048 5.83214 1.19343C5.80042 1.21638 5.67177 1.19343 5.63476 1.19343H5.43738L5.59775 1.30993C5.62771 1.33112 5.74578 1.38937 5.75812 1.42644C5.77046 1.4635 5.70878 1.57824 5.69644 1.61354L5.633 1.80065L5.79337 1.68415C5.82333 1.6612 5.91497 1.56765 5.95198 1.56765C5.98898 1.56765 6.08239 1.6612 6.11235 1.68415L6.27095 1.80065C6.25157 1.73711 6.23042 1.67533 6.20927 1.61178C6.1987 1.57648 6.13702 1.45997 6.14759 1.42467C6.15817 1.38937 6.278 1.32935 6.30796 1.30817L6.46833 1.19167H6.27272C6.23571 1.19167 6.09649 1.21285 6.07534 1.19167C6.05419 1.17048 6.02599 1.0381 6.01542 1.00279L5.98546 0.935715L5.89734 0.969253L5.89382 1.00456Z" fill="#F4F4F4"/>
<path fill-rule="evenodd" clip-rule="evenodd" d="M0.532862 8.31596L0.691471 8.43246C0.672085 8.37068 0.650937 8.30713 0.62979 8.24535C0.608642 8.18357 0.557535 8.09178 0.569871 8.05648C0.582207 8.02117 0.69852 7.96292 0.72848 7.93998C0.758439 7.91703 0.835981 7.86407 0.888851 7.82524H0.69852C0.661511 7.82524 0.5311 7.84819 0.50114 7.82524C0.482318 7.80726 0.468369 7.78479 0.460607 7.75993C0.435934 7.90291 0.416549 8.05471 0.398926 8.20828C0.445626 8.24153 0.490348 8.27749 0.532862 8.31596Z" fill="#F4F4F4"/>
<path fill-rule="evenodd" clip-rule="evenodd" d="M7.99103 7.10858C8.0016 7.14565 7.93992 7.26215 7.92935 7.29745C7.91878 7.33275 7.88882 7.42278 7.86767 7.48456L8.02628 7.36806C8.05624 7.34688 8.14964 7.25156 8.18665 7.25156C8.22366 7.25156 8.3153 7.34688 8.34526 7.36806L8.50563 7.48456C8.48448 7.42278 8.46509 7.35923 8.44395 7.29745C8.4228 7.23567 8.37169 7.14565 8.38226 7.10858C8.39284 7.07151 8.51268 7.01502 8.54264 6.99384L8.70301 6.87734H8.50563C8.46862 6.87734 8.33821 6.90029 8.30825 6.87734C8.27829 6.85439 8.2589 6.72553 8.24657 6.69023C8.22718 6.62668 8.20603 6.5649 8.18665 6.50135C8.16726 6.5649 8.14611 6.62668 8.12673 6.69023C8.11439 6.72553 8.09501 6.85616 8.06505 6.87734C8.03509 6.89852 7.90468 6.87734 7.86767 6.87734H7.67029L7.83066 6.99384C7.86062 7.01502 7.97869 7.07327 7.99103 7.10858Z" fill="#F4F4F4"/>
<path fill-rule="evenodd" clip-rule="evenodd" d="M4.64088 6.17126C4.65322 6.20657 4.59153 6.32307 4.58096 6.35837C4.55981 6.42192 4.53866 6.4837 4.51928 6.54725L4.67789 6.43074C4.70785 6.4078 4.79949 6.31424 4.83826 6.31424C4.87703 6.31424 4.96691 6.4078 4.99687 6.43074L5.15724 6.54725L5.10437 6.34778C5.09203 6.31248 5.03035 6.19598 5.04269 6.16067C5.05502 6.12537 5.1731 6.06535 5.20306 6.04417L5.36343 5.92767H5.15724C5.12023 5.92767 4.98982 5.94885 4.95986 5.92767C4.9299 5.90649 4.91051 5.7741 4.89818 5.73879C4.87879 5.67525 4.85764 5.61347 4.83826 5.54992L4.77658 5.73879C4.766 5.7741 4.74662 5.90472 4.71666 5.92767C4.6867 5.95062 4.55629 5.92767 4.51928 5.92767H4.3219L4.48227 6.04417C4.51223 6.06712 4.63031 6.12537 4.64088 6.17126Z" fill="#F4F4F4"/>
<path fill-rule="evenodd" clip-rule="evenodd" d="M4.64088 8.05648C4.65322 8.09178 4.59153 8.20829 4.58096 8.24535C4.57039 8.28242 4.53866 8.37068 4.51928 8.43246L4.67789 8.31596C4.70785 8.29478 4.79949 8.19946 4.83826 8.19946C4.87703 8.19946 4.96691 8.29478 4.99687 8.31596L5.15724 8.43246C5.13609 8.37068 5.11671 8.30714 5.09556 8.24535C5.07441 8.18357 5.02154 8.09178 5.03388 8.05648C5.04621 8.02118 5.16429 7.96293 5.19425 7.93998L5.35462 7.82524H5.15724C5.12023 7.82524 4.98982 7.84819 4.95986 7.82524C4.9299 7.80229 4.91051 7.67344 4.89818 7.63813C4.87879 7.57458 4.85764 7.51104 4.83826 7.44926C4.81711 7.51104 4.79773 7.57458 4.77658 7.63813C4.766 7.67344 4.74662 7.80406 4.71666 7.82524C4.6867 7.84642 4.55629 7.82524 4.51928 7.82524H4.3219C4.37477 7.86408 4.42764 7.90291 4.48227 7.93998C4.5369 7.97705 4.63031 8.02118 4.64088 8.05648Z" fill="#F4F4F4"/>
<path fill-rule="evenodd" clip-rule="evenodd" d="M5.75812 9.00438C5.76869 9.03969 5.70878 9.15619 5.69644 9.19149L5.633 9.38037L5.79337 9.26387C5.82333 9.24092 5.91497 9.14736 5.95198 9.14736C5.98898 9.14736 6.08239 9.24092 6.11235 9.26387L6.27095 9.38037C6.25157 9.31682 6.23042 9.25504 6.20927 9.19149C6.1987 9.15619 6.13702 9.03969 6.14759 9.00438C6.15817 8.96908 6.278 8.91083 6.30796 8.88788L6.46833 8.77315H6.27272C6.23571 8.77315 6.09649 8.79609 6.07534 8.77315C6.05419 8.7502 6.02599 8.61957 6.01542 8.58427C5.99427 8.52249 5.97489 8.45894 5.95374 8.39716L5.89382 8.58427C5.88148 8.61957 5.86386 8.7502 5.83214 8.77315C5.80042 8.79609 5.67177 8.77315 5.63476 8.77315H5.43738C5.49201 8.81021 5.54488 8.84905 5.59775 8.88788C5.65062 8.92672 5.74578 8.96732 5.75812 9.00438Z" fill="#F4F4F4"/>
<path fill-rule="evenodd" clip-rule="evenodd" d="M4.64088 4.26663C4.65322 4.3037 4.59153 4.41844 4.58096 4.45374C4.55981 4.51729 4.53866 4.57907 4.51928 4.64262L4.67789 4.52611C4.70785 4.50317 4.79949 4.40961 4.83826 4.40961C4.87703 4.40961 4.96691 4.50317 4.99687 4.52611L5.15724 4.64262L5.10437 4.45374C5.09203 4.41844 5.03035 4.3037 5.04269 4.26663C5.05502 4.22956 5.1731 4.17308 5.20306 4.15013L5.36343 4.03539H5.15724C5.12023 4.03539 4.98982 4.05834 4.95986 4.03539C4.9299 4.01245 4.91051 3.88359 4.89818 3.84828C4.87879 3.78474 4.85764 3.72296 4.83826 3.65941L4.77658 3.84828C4.766 3.88359 4.74662 4.01421 4.71666 4.03539C4.6867 4.05658 4.55629 4.03539 4.51928 4.03539H4.3219C4.37477 4.07423 4.42764 4.11306 4.48227 4.15013C4.5369 4.1872 4.63031 4.22956 4.64088 4.26663Z" fill="#F4F4F4"/>
<path fill-rule="evenodd" clip-rule="evenodd" d="M4.64088 2.37082C4.65322 2.40789 4.59153 2.5244 4.58096 2.5597C4.55981 2.62148 4.53866 2.68503 4.51928 2.74681L4.67789 2.63031C4.70785 2.60912 4.79949 2.5138 4.83826 2.5138C4.87703 2.5138 4.96691 2.60912 4.99687 2.63031L5.15724 2.74681C5.13609 2.68503 5.11671 2.62148 5.09556 2.5597C5.08322 2.5244 5.02154 2.40789 5.03388 2.37082C5.04621 2.33376 5.16429 2.27727 5.19425 2.25609L5.35462 2.13959H5.15724C5.12023 2.13959 4.98982 2.16253 4.95986 2.13959C4.9299 2.11664 4.91051 1.98602 4.89818 1.95071C4.87879 1.88716 4.85764 1.82538 4.83826 1.76184L4.77658 1.95248C4.766 1.98778 4.74662 2.1184 4.71666 2.14135C4.6867 2.1643 4.55629 2.14135 4.51928 2.14135H4.3219L4.48227 2.25785C4.51223 2.27727 4.63031 2.33552 4.64088 2.37082Z" fill="#F4F4F4"/>
<path fill-rule="evenodd" clip-rule="evenodd" d="M3.51823 5.21453C3.53057 5.24984 3.46888 5.36634 3.45655 5.40164C3.43716 5.46519 3.41601 5.52697 3.39487 5.59052L3.55524 5.47402C3.5852 5.45107 3.67684 5.35751 3.71385 5.35751C3.75086 5.35751 3.84426 5.45107 3.87422 5.47402L4.03283 5.59052C4.01344 5.52697 3.99229 5.46519 3.97291 5.40164C3.96057 5.36634 3.89889 5.24984 3.91123 5.21453C3.92356 5.17923 4.03988 5.12098 4.0716 5.09803L4.23021 4.98153H4.04693C4.00992 4.98153 3.88127 5.00448 3.84955 4.98153C3.81782 4.95858 3.8002 4.82796 3.78963 4.79266C3.77905 4.75735 3.74909 4.66733 3.72795 4.60555L3.66803 4.79266C3.65745 4.82796 3.63807 4.95858 3.60811 4.98153C3.57815 5.00448 3.44774 4.98153 3.41073 4.98153H3.2063L3.36491 5.09803C3.39487 5.12098 3.51823 5.17747 3.51823 5.21453Z" fill="#F4F4F4"/>
<path fill-rule="evenodd" clip-rule="evenodd" d="M3.51823 3.31873C3.53057 3.3558 3.46888 3.4723 3.45655 3.50761C3.43716 3.56939 3.41601 3.63293 3.39487 3.69472L3.55524 3.57821C3.5852 3.55703 3.67684 3.46171 3.71385 3.46171C3.75086 3.46171 3.84426 3.55703 3.87422 3.57821L4.04693 3.70001L3.98701 3.5129C3.97467 3.4776 3.91299 3.3611 3.92533 3.32403C3.93766 3.28696 4.05397 3.23047 4.0857 3.20929L4.2443 3.09279H4.04693C4.00992 3.09279 3.88127 3.11574 3.84955 3.09279C3.81782 3.06984 3.8002 2.94098 3.78963 2.90568L3.72795 2.7168C3.70856 2.78035 3.68741 2.84213 3.66803 2.90568C3.65745 2.94098 3.63807 3.07161 3.60811 3.09279C3.57815 3.11397 3.44774 3.09279 3.41073 3.09279H3.2063L3.36491 3.20929C3.39487 3.22518 3.51823 3.28343 3.51823 3.31873Z" fill="#F4F4F4"/>
<path fill-rule="evenodd" clip-rule="evenodd" d="M3.40192 9.38037L3.56229 9.26387C3.59225 9.24092 3.68389 9.14736 3.7209 9.14736C3.7579 9.14736 3.85131 9.24092 3.88127 9.26387L4.03988 9.38037C4.02049 9.31682 3.99934 9.25504 3.97996 9.19149C3.96762 9.15619 3.90594 9.03969 3.91828 9.00438C3.93061 8.96908 4.04693 8.91083 4.07865 8.88788L4.23726 8.77315H4.04693C4.00992 8.77315 3.88127 8.79609 3.84955 8.77315C3.81782 8.7502 3.8002 8.61957 3.78963 8.58427C3.76848 8.52249 3.74909 8.45894 3.72795 8.39716L3.66803 8.58427C3.65745 8.61957 3.63807 8.7502 3.60811 8.77315C3.57815 8.79609 3.44774 8.77315 3.41073 8.77315H3.2063L3.36491 8.88788C3.39487 8.91083 3.51294 8.96732 3.52528 9.00438C3.53761 9.04145 3.47593 9.15619 3.4636 9.19149C3.44421 9.25504 3.42306 9.31682 3.40192 9.38037Z" fill="#F4F4F4"/>
<path fill-rule="evenodd" clip-rule="evenodd" d="M2.72695 4.03539C2.69523 4.01421 2.6776 3.88359 2.66527 3.84828C2.64588 3.78474 2.62473 3.72296 2.60535 3.65941C2.58596 3.72296 2.56482 3.78474 2.54543 3.84828C2.53309 3.88359 2.51547 4.01421 2.48375 4.03539C2.45203 4.05658 2.32338 4.03539 2.28637 4.03539H2.08899L2.24936 4.15013C2.27932 4.17308 2.3974 4.23133 2.40973 4.26663C2.42207 4.30194 2.35862 4.41844 2.34805 4.45374L2.28461 4.64262L2.44498 4.52611C2.47494 4.50317 2.56482 4.40961 2.60359 4.40961C2.64236 4.40961 2.73224 4.50317 2.76396 4.52611L2.92257 4.64262L2.86089 4.45374C2.85031 4.41844 2.78863 4.3037 2.7992 4.26663C2.80978 4.22956 2.92962 4.17308 2.95957 4.15013L3.11995 4.03539H2.92433C2.88732 4.03539 2.75691 4.05305 2.72695 4.03539Z" fill="#F4F4F4"/>
<path fill-rule="evenodd" clip-rule="evenodd" d="M2.72695 7.82524C2.69523 7.80406 2.6776 7.67344 2.66527 7.63813C2.64588 7.57458 2.62473 7.51104 2.60535 7.44926C2.58596 7.51104 2.56482 7.57458 2.54543 7.63813C2.53309 7.67344 2.51547 7.80406 2.48375 7.82524C2.45203 7.84642 2.32338 7.82524 2.28637 7.82524H2.08899L2.24936 7.93998C2.27932 7.96293 2.3974 8.02118 2.40973 8.05648C2.42207 8.09178 2.35862 8.20829 2.34805 8.24535C2.33748 8.28242 2.30752 8.37068 2.28637 8.43246L2.44674 8.31596C2.4767 8.29478 2.56658 8.19946 2.60535 8.19946C2.64412 8.19946 2.734 8.29478 2.76572 8.31596L2.92433 8.43246C2.90318 8.37068 2.8838 8.30714 2.86265 8.24535C2.8415 8.18357 2.79039 8.09178 2.80097 8.05648C2.81154 8.02118 2.93138 7.96293 2.96134 7.93998L3.12171 7.82524H2.92433C2.88732 7.82524 2.75691 7.84819 2.72695 7.82524Z" fill="#F4F4F4"/>
<path fill-rule="evenodd" clip-rule="evenodd" d="M3.51823 7.10858C3.53057 7.14565 3.46888 7.26215 3.45655 7.29745C3.44421 7.33275 3.41601 7.42278 3.39487 7.48456L3.55524 7.36806C3.5852 7.34688 3.67684 7.25156 3.71385 7.25156C3.75086 7.25156 3.84426 7.34688 3.87422 7.36806L4.03283 7.48456L3.97291 7.29745C3.96057 7.26215 3.89889 7.14565 3.91123 7.10858C3.92356 7.07151 4.03988 7.01502 4.0716 6.99384L4.23021 6.87734H4.04693C4.00992 6.87734 3.88127 6.90029 3.84955 6.87734C3.81782 6.85439 3.8002 6.72553 3.78963 6.69023L3.72795 6.50135C3.70856 6.5649 3.68741 6.62668 3.66803 6.69023C3.65745 6.72553 3.63807 6.85616 3.60811 6.87734C3.57815 6.89852 3.44774 6.87734 3.41073 6.87734H3.2063L3.36491 6.99384C3.39487 7.01502 3.51823 7.07327 3.51823 7.10858Z" fill="#F4F4F4"/>
<path fill-rule="evenodd" clip-rule="evenodd" d="M2.72695 5.9312C2.69523 5.90825 2.6776 5.77763 2.66527 5.74233C2.64588 5.67878 2.62473 5.617 2.60535 5.55345C2.58596 5.617 2.56482 5.67878 2.54543 5.74233C2.53309 5.77763 2.51547 5.90825 2.48375 5.9312C2.45203 5.95415 2.32338 5.9312 2.28637 5.9312H2.08899L2.24936 6.0477C2.27932 6.06888 2.3974 6.12714 2.40973 6.1642C2.42207 6.20127 2.35862 6.31601 2.34805 6.35131L2.28461 6.53842C2.33748 6.49959 2.39035 6.45899 2.44498 6.42192C2.49961 6.38485 2.56482 6.30542 2.60359 6.30542C2.64236 6.30542 2.73224 6.39897 2.76396 6.42192L2.92257 6.53842L2.86265 6.34778C2.85207 6.31248 2.79039 6.19598 2.80097 6.16067C2.81154 6.12537 2.93138 6.06535 2.96134 6.04417L3.12171 5.92767H2.92433C2.88732 5.9312 2.75691 5.95238 2.72695 5.9312Z" fill="#F4F4F4"/>
<path fill-rule="evenodd" clip-rule="evenodd" d="M1.61147 8.77315C1.57975 8.7502 1.56213 8.61957 1.54979 8.58427L1.48987 8.39716C1.46872 8.45894 1.44934 8.52249 1.42819 8.58427C1.41762 8.61957 1.39823 8.7502 1.36827 8.77315C1.33831 8.79609 1.2079 8.77315 1.17089 8.77315H0.973511L1.13388 8.88788C1.16384 8.91083 1.28192 8.96732 1.29249 9.00438C1.30306 9.04145 1.24315 9.15619 1.23257 9.19149C1.21142 9.25504 1.19028 9.31682 1.17089 9.38037L1.3295 9.26387C1.35946 9.24092 1.4511 9.14736 1.48987 9.14736C1.52864 9.14736 1.61852 9.24092 1.64848 9.26387L1.80885 9.38037C1.7877 9.31682 1.76655 9.25504 1.74717 9.19149C1.73483 9.15619 1.67315 9.03969 1.68549 9.00438C1.69782 8.96908 1.8159 8.91083 1.84586 8.88788L2.00447 8.77315H1.80709C1.77008 8.77315 1.64143 8.79609 1.61147 8.77315Z" fill="#F4F4F4"/>
<path fill-rule="evenodd" clip-rule="evenodd" d="M6.86662 2.37082C6.87895 2.40789 6.81727 2.5244 6.80494 2.5597L6.74502 2.74681L6.90363 2.63031C6.93359 2.60912 7.02523 2.5138 7.064 2.5138C7.10277 2.5138 7.19265 2.60912 7.22261 2.63031L7.38298 2.74681C7.36183 2.68503 7.34068 2.62148 7.3213 2.5597C7.30896 2.5244 7.24728 2.40789 7.25961 2.37082C7.27195 2.33376 7.38826 2.27727 7.41999 2.25609L7.57859 2.13959H7.39531C7.3583 2.13959 7.22966 2.16253 7.19793 2.13959C7.16621 2.11664 7.14859 1.98602 7.13801 1.95071C7.11687 1.88716 7.09748 1.82538 7.0781 1.76184L7.00937 1.95248C6.99879 1.98778 6.97941 2.1184 6.94945 2.14135C6.91949 2.1643 6.78908 2.14135 6.75207 2.14135H6.55469L6.7133 2.25785C6.74502 2.27727 6.86662 2.33552 6.86662 2.37082Z" fill="#F4F4F4"/>
<path fill-rule="evenodd" clip-rule="evenodd" d="M7.99103 9.00438C8.0016 9.03969 7.93992 9.15619 7.92935 9.19149L7.86767 9.38037L8.02628 9.26387C8.05624 9.24092 8.14964 9.14736 8.18665 9.14736C8.22366 9.14736 8.3153 9.24092 8.34526 9.26387L8.50563 9.38037L8.45276 9.19149C8.44218 9.15619 8.3805 9.03969 8.39108 9.00438C8.40165 8.96908 8.52149 8.91083 8.55145 8.88788L8.71182 8.77315H8.50563C8.46862 8.77315 8.33821 8.79609 8.30825 8.77315C8.27829 8.7502 8.2589 8.61957 8.24657 8.58427L8.18665 8.39716L8.12673 8.58427C8.11439 8.61957 8.09501 8.7502 8.06505 8.77315C8.03509 8.79609 7.90468 8.77315 7.86767 8.77315H7.67029L7.83066 8.88788C7.86062 8.91083 7.97869 8.96732 7.99103 9.00438Z" fill="#F4F4F4"/>
<path fill-rule="evenodd" clip-rule="evenodd" d="M6.86662 4.26663C6.87895 4.3037 6.81727 4.41844 6.80494 4.45374C6.78555 4.51729 6.7644 4.57907 6.74502 4.64262L6.90363 4.52611C6.93359 4.50317 7.02523 4.40961 7.064 4.40961C7.10277 4.40961 7.19265 4.50317 7.22261 4.52611L7.38298 4.64262C7.36183 4.57907 7.34068 4.51729 7.3213 4.45374C7.30896 4.41844 7.24728 4.3037 7.25961 4.26663C7.27195 4.22956 7.38826 4.17308 7.41999 4.15013L7.57859 4.03539H7.39531C7.3583 4.03539 7.22966 4.05834 7.19793 4.03539C7.16621 4.01245 7.14859 3.88359 7.13801 3.84828C7.11687 3.78474 7.09748 3.72296 7.0781 3.65941L7.01641 3.84828C7.00584 3.88359 6.98646 4.01421 6.9565 4.03539C6.92654 4.05658 6.79613 4.03539 6.75912 4.03539H6.55469L6.7133 4.15013C6.74502 4.17308 6.86662 4.22956 6.86662 4.26663Z" fill="#F4F4F4"/>
<path fill-rule="evenodd" clip-rule="evenodd" d="M7.99103 5.21453C8.0016 5.24984 7.93992 5.36634 7.92935 5.40164L7.86767 5.59052L8.02628 5.47402C8.05624 5.45107 8.14964 5.35751 8.18665 5.35751C8.22366 5.35751 8.3153 5.45107 8.34526 5.47402L8.50563 5.59052L8.45276 5.40164C8.44218 5.36634 8.3805 5.24984 8.39108 5.21453C8.40165 5.17923 8.52149 5.12098 8.55145 5.09803L8.71182 4.98153H8.50563C8.46862 4.98153 8.33821 5.00448 8.30825 4.98153C8.27829 4.95858 8.2589 4.82796 8.24657 4.79266L8.18665 4.60555L8.12673 4.79266C8.11439 4.82796 8.09501 4.95858 8.06505 4.98153C8.03509 5.00448 7.90468 4.98153 7.86767 4.98153H7.67029L7.83066 5.09803C7.86062 5.12098 7.97869 5.17747 7.99103 5.21453Z" fill="#F4F4F4"/>
<path fill-rule="evenodd" clip-rule="evenodd" d="M7.99103 3.31873C8.0016 3.3558 7.93992 3.4723 7.92935 3.50761C7.9082 3.56939 7.88882 3.63293 7.86767 3.69471L8.02628 3.57821C8.05624 3.55703 8.14964 3.46171 8.18665 3.46171C8.22366 3.46171 8.3153 3.55703 8.34526 3.57821L8.50563 3.69471C8.48448 3.63293 8.46509 3.56939 8.44395 3.50761C8.43337 3.4723 8.37169 3.3558 8.38226 3.31873C8.39284 3.28166 8.51268 3.22518 8.54264 3.20399L8.70301 3.08749H8.50563C8.46862 3.08749 8.33821 3.11044 8.30825 3.08749C8.27829 3.06454 8.2589 2.93569 8.24657 2.90038C8.22718 2.83684 8.20603 2.77505 8.18665 2.71151C8.16726 2.77505 8.14611 2.83684 8.12673 2.90038C8.11439 2.93569 8.09501 3.06631 8.06505 3.08749C8.03509 3.10867 7.90468 3.08749 7.86767 3.08749H7.67029L7.83066 3.20399C7.86062 3.22518 7.97869 3.28343 7.99103 3.31873Z" fill="#F4F4F4"/>
<path fill-rule="evenodd" clip-rule="evenodd" d="M6.86662 6.17127C6.87895 6.20657 6.81727 6.32307 6.80494 6.35838C6.78555 6.42192 6.7644 6.48371 6.74502 6.54725L6.90363 6.43075C6.93359 6.4078 7.02523 6.31425 7.064 6.31425C7.10277 6.31425 7.19265 6.4078 7.22261 6.43075L7.38298 6.54725C7.36183 6.48371 7.34068 6.42192 7.3213 6.35838C7.30896 6.32307 7.24728 6.20657 7.25961 6.17127C7.27195 6.13596 7.38826 6.07595 7.41999 6.05477L7.57859 5.93826H7.39531C7.3583 5.93826 7.22966 5.95945 7.19793 5.93826C7.16621 5.91708 7.14859 5.78469 7.13801 5.74939C7.11687 5.68584 7.09748 5.62406 7.0781 5.56051L7.01641 5.74939C7.00584 5.78469 6.98646 5.91532 6.9565 5.93826C6.92654 5.96121 6.79613 5.93826 6.75912 5.93826H6.55469L6.7133 6.05477C6.74502 6.06712 6.86662 6.12537 6.86662 6.17127Z" fill="#F4F4F4"/>
<path fill-rule="evenodd" clip-rule="evenodd" d="M5.75812 3.31873C5.76869 3.3558 5.70878 3.4723 5.69644 3.50761C5.67529 3.56939 5.65591 3.63293 5.63476 3.69471L5.79513 3.57821C5.82509 3.55703 5.91673 3.46171 5.95374 3.46171C5.99075 3.46171 6.08415 3.55703 6.11411 3.57821L6.27272 3.69471C6.25333 3.63293 6.23218 3.56939 6.21104 3.50761C6.20046 3.4723 6.13878 3.3558 6.14936 3.31873C6.15993 3.28166 6.27977 3.22518 6.30973 3.20399L6.4701 3.08749H6.27272C6.23571 3.08749 6.09649 3.11044 6.07534 3.08749C6.05419 3.06454 6.02599 2.93569 6.01542 2.90038L5.95374 2.71151C5.93435 2.77505 5.9132 2.83684 5.89382 2.90038C5.88148 2.93569 5.86386 3.06631 5.83214 3.08749C5.80042 3.10867 5.67177 3.08749 5.63476 3.08749H5.43738L5.59775 3.20399C5.633 3.22518 5.74578 3.28343 5.75812 3.31873Z" fill="#F4F4F4"/>
<path fill-rule="evenodd" clip-rule="evenodd" d="M6.86662 8.05648C6.87895 8.09178 6.81727 8.20829 6.80494 8.24535L6.74502 8.43246L6.90363 8.31596C6.93359 8.29478 7.02523 8.19946 7.064 8.19946C7.10277 8.19946 7.19265 8.29478 7.22261 8.31596L7.38298 8.43246C7.36183 8.37068 7.34068 8.30714 7.3213 8.24535C7.30191 8.18357 7.24728 8.09178 7.25961 8.05648C7.27195 8.02118 7.38826 7.96293 7.41999 7.93998L7.57859 7.82524H7.39531C7.3583 7.82524 7.22966 7.84819 7.19793 7.82524C7.16621 7.80229 7.14859 7.67344 7.13801 7.63813C7.11687 7.57458 7.09748 7.51104 7.0781 7.44926C7.05695 7.51104 7.03756 7.57458 7.01641 7.63813C7.00584 7.67344 6.98646 7.80406 6.9565 7.82524C6.92654 7.84642 6.79613 7.82524 6.75912 7.82524H6.55469L6.7133 7.93998C6.74502 7.96293 6.86662 8.02118 6.86662 8.05648Z" fill="#F4F4F4"/>
<path fill-rule="evenodd" clip-rule="evenodd" d="M5.75812 7.10858C5.76869 7.14565 5.70878 7.26215 5.69644 7.29745C5.6841 7.33275 5.65591 7.42278 5.63476 7.48456L5.79513 7.36806C5.82509 7.34688 5.91673 7.25156 5.95374 7.25156C5.99075 7.25156 6.08415 7.34688 6.11411 7.36806L6.27272 7.48456C6.25333 7.42278 6.23218 7.35923 6.21104 7.29745C6.18989 7.23567 6.13878 7.14565 6.14936 7.10858C6.15993 7.07151 6.27977 7.01502 6.30973 6.99384L6.4701 6.87734H6.27272C6.23571 6.87734 6.09649 6.90029 6.07534 6.87734C6.05419 6.85439 6.02599 6.72553 6.01542 6.69023L5.95374 6.50135C5.93435 6.5649 5.9132 6.62668 5.89382 6.69023C5.88148 6.72553 5.86386 6.85616 5.83214 6.87734C5.80042 6.89852 5.67177 6.87734 5.63476 6.87734H5.43738L5.59775 6.99384C5.633 7.01502 5.74578 7.07327 5.75812 7.10858Z" fill="#F4F4F4"/>
<path fill-rule="evenodd" clip-rule="evenodd" d="M5.75812 5.21453C5.76869 5.24984 5.70878 5.36634 5.69644 5.40164L5.633 5.59052L5.79337 5.47402C5.82333 5.45107 5.91497 5.35751 5.95198 5.35751C5.98898 5.35751 6.08239 5.45107 6.11235 5.47402L6.27095 5.59052C6.25157 5.52697 6.23042 5.46519 6.20927 5.40164C6.1987 5.36634 6.13702 5.24984 6.14759 5.21453C6.15817 5.17923 6.278 5.12098 6.30796 5.09803L6.46833 4.98153H6.27272C6.23571 4.98153 6.09649 5.00448 6.07534 4.98153C6.05419 4.95858 6.02599 4.82796 6.01542 4.79266C6.00484 4.75735 5.97489 4.66733 5.95374 4.60555L5.89382 4.79266C5.88148 4.82796 5.86386 4.95858 5.83214 4.98153C5.80042 5.00448 5.67177 4.98153 5.63476 4.98153H5.43738L5.59775 5.09803C5.633 5.12098 5.74578 5.17747 5.75812 5.21453Z" fill="#F4F4F4"/>
<path fill-rule="evenodd" clip-rule="evenodd" d="M1.61147 6.87734C1.57975 6.85616 1.56213 6.72553 1.54979 6.69023C1.5304 6.62668 1.50926 6.5649 1.48987 6.50135L1.42819 6.69023C1.41762 6.72553 1.39823 6.85616 1.36827 6.87734C1.33831 6.89852 1.2079 6.87734 1.17089 6.87734H0.973511L1.13388 6.99384C1.16384 7.01502 1.28192 7.07327 1.29249 7.10858C1.30306 7.14388 1.24315 7.26215 1.23257 7.29745C1.222 7.33275 1.19028 7.42278 1.17089 7.48456L1.3295 7.36806C1.35946 7.34688 1.4511 7.25156 1.48987 7.25156C1.52864 7.25156 1.61852 7.34688 1.64848 7.36806L1.80885 7.48456C1.7877 7.42278 1.76655 7.35923 1.74717 7.29745C1.72778 7.23567 1.67315 7.14565 1.68549 7.10858C1.69782 7.07151 1.8159 7.01502 1.84586 6.99384L2.00447 6.87734H1.80709C1.77008 6.87734 1.64143 6.90029 1.61147 6.87734Z" fill="#F4F4F4"/>
<path fill-rule="evenodd" clip-rule="evenodd" d="M7.99103 1.42469C8.0016 1.45999 7.93992 1.57649 7.92935 1.6118L7.86767 1.80067L8.02628 1.68417C8.05624 1.66122 8.14964 1.56767 8.18665 1.56767C8.22366 1.56767 8.3153 1.66122 8.34526 1.68417L8.50563 1.80067L8.45276 1.6118C8.44218 1.57649 8.3805 1.45999 8.39108 1.42469C8.40165 1.38938 8.52149 1.32937 8.55145 1.30819L8.71182 1.19168H8.50563C8.46862 1.19168 8.33821 1.21287 8.30825 1.19168C8.27829 1.1705 8.2589 1.03811 8.24657 1.00281L8.18665 0.815701L8.12673 1.00281C8.11439 1.03811 8.09501 1.16874 8.06505 1.19168C8.03509 1.21463 7.90468 1.19168 7.86767 1.19168H7.67029L7.83066 1.30819C7.86062 1.32937 7.97869 1.38762 7.99103 1.42469Z" fill="#F4F4F4"/>
</g>
</svg>
