<svg width="20" height="20" viewBox="0 0 20 20" fill="none" xmlns="http://www.w3.org/2000/svg">
<path fill-rule="evenodd" clip-rule="evenodd" d="M12.548 2.85601C12.4856 3.0475 12.2787 3.15241 12.086 3.09012C11.8933 3.02784 11.788 2.82222 11.8504 2.63096L12.6282 0.252072C12.6907 0.0605868 12.8973 -0.0443217 13.0902 0.0179608C13.2831 0.0802433 13.3882 0.285643 13.3258 0.477129L12.548 2.85601ZM15.9731 5.60749L18.0091 4.13766C18.1729 4.01928 18.2091 3.79158 18.0902 3.62858C17.9713 3.46559 17.742 3.42959 17.578 3.54797L15.542 5.01779C15.3782 5.13617 15.342 5.36388 15.4609 5.52687C15.5798 5.68987 15.8093 5.72587 15.9731 5.60749ZM19.6333 9.10547H17.1167C16.914 9.10547 16.75 9.26846 16.75 9.46989C16.75 9.67131 16.914 9.83431 17.1167 9.83431H19.6333C19.836 9.83431 20 9.67131 20 9.46989C20 9.26846 19.836 9.10547 19.6333 9.10547ZM3.25 9.47011C3.25 9.26868 3.086 9.10569 2.88333 9.10569H0.366667C0.164 9.10569 0 9.26868 0 9.47011C0 9.67153 0.164 9.83453 0.366667 9.83453H2.88311C3.086 9.83453 3.25 9.67153 3.25 9.47011ZM1.99089 14.803L4.02689 13.333C4.19067 13.2146 4.42022 13.2503 4.53911 13.4136C4.658 13.5763 4.62178 13.8045 4.458 13.9226L2.422 15.3927C2.258 15.5109 2.02867 15.4746 1.90978 15.3121C1.79089 15.1489 1.82711 14.9212 1.99089 14.803ZM7.452 2.85601C7.51444 3.0475 7.72133 3.15219 7.914 3.09012C8.10667 3.02806 8.212 2.82244 8.14956 2.63096L7.37178 0.252072C7.30933 0.0605868 7.10244 -0.0441009 6.90978 0.0179608C6.71711 0.0800225 6.61178 0.285643 6.67422 0.477129L7.452 2.85601ZM15.9731 13.333L18.0091 14.803C18.1729 14.9212 18.2091 15.1489 18.0902 15.3121C17.9713 15.4746 17.7418 15.5109 17.578 15.3927L15.542 13.9226C15.3782 13.8045 15.342 13.5761 15.4609 13.4136C15.5798 13.2506 15.8093 13.2148 15.9731 13.333ZM4.458 5.01779L2.422 3.54797C2.25822 3.42959 2.02867 3.46581 1.90978 3.62858C1.79089 3.79135 1.82711 4.01928 1.99089 4.13766L4.02689 5.60749C4.19067 5.72587 4.42022 5.68965 4.53911 5.52687C4.658 5.3641 4.62178 5.13617 4.458 5.01779ZM4.85644 9.47011C4.85644 6.65127 7.16378 4.35808 10 4.35808C12.8362 4.35808 15.1436 6.65127 15.1436 9.47011C15.1436 11.8282 13.1842 14.5371 12.5889 15.3055V16.427C12.5889 17.8456 11.4273 19 10 19C8.57267 19 7.41111 17.8458 7.41111 16.427V15.3055C6.816 14.5373 4.85644 11.8282 4.85644 9.47011ZM10 18.2712C11.0233 18.2712 11.8556 17.4438 11.8556 16.427V15.6489H8.14444V16.427C8.14444 17.4438 8.97689 18.2712 10 18.2712ZM11.9611 14.9198H8.03867C7.558 14.3025 5.58978 11.6432 5.58978 9.47011C5.58978 7.05324 7.568 5.08692 10 5.08692C12.432 5.08692 14.4102 7.05302 14.4102 9.47011C14.4102 11.6398 12.4418 14.3021 11.9611 14.9198Z" fill="white"/>
</svg>
