<svg width="131" height="120" viewBox="0 0 131 120" fill="none" xmlns="http://www.w3.org/2000/svg">
<path fill-rule="evenodd" clip-rule="evenodd" d="M133.152 -4V121.545L0.078125 122L133.152 -4Z" fill="url(#paint0_linear_0_131)"/>
<mask id="mask0_0_131" style="mask-type:luminance" maskUnits="userSpaceOnUse" x="0" y="-4" width="134" height="126">
<path fill-rule="evenodd" clip-rule="evenodd" d="M133.152 -4V121.545L0.078125 122L133.152 -4Z" fill="white"/>
</mask>
<g mask="url(#mask0_0_131)">
<g opacity="0.498744">
<path fill-rule="evenodd" clip-rule="evenodd" d="M97.4354 50.6757C98.3916 50.6727 99.2359 51.3018 99.5107 52.222C99.1012 51.6835 98.4673 51.365 97.7928 51.3589C97.2295 51.3477 96.6859 51.5677 96.2875 51.968C95.8891 52.3684 95.6702 52.9145 95.6813 53.4806C95.6869 53.6859 95.7102 53.8904 95.751 54.0917C95.462 53.7238 95.3102 53.2659 95.3219 52.7974C95.3108 52.2313 95.5296 51.6852 95.9281 51.2848C96.3265 50.8845 96.87 50.6645 97.4333 50.6757H97.4354ZM101.973 56.9559C101.889 56.9086 101.804 56.8611 101.729 56.8245V56.8238C101.05 56.4283 100.799 56.4283 100.441 56.8238C100.112 57.1434 99.7029 57.3672 99.2571 57.4713C99.0049 57.5434 98.9353 57.5791 98.9353 58.0467V67.6479C98.9353 67.7018 98.9442 67.7648 98.953 67.8278L98.953 67.8278C98.9619 67.8908 98.9708 67.9538 98.9708 68.0077C99.4361 68.0791 99.9015 68.1533 100.331 68.2233V58.5871C100.331 58.1195 100.402 58.0817 100.652 58.0117C101.098 57.9076 101.508 57.6838 101.837 57.3642C101.927 57.2368 102.051 57.1372 102.195 57.0765C102.126 57.0421 102.05 56.9991 101.973 56.9559ZM125.095 67.1439C124.869 66.2261 124.031 65.5949 123.091 65.6333H123.089C121.942 65.6247 120.993 66.5305 120.942 67.6829C120.931 68.1624 121.082 68.6315 121.372 69.0129C121.329 68.812 121.305 68.6073 121.302 68.4018C121.298 67.8413 121.521 67.3033 121.919 66.9104C122.317 66.5175 122.856 66.3032 123.413 66.3165H123.449C124.094 66.326 124.7 66.6305 125.095 67.1439ZM94.5702 84.5473C94.5408 84.4422 94.5288 84.3329 94.5347 84.2239V84.191H101.298C101.298 84.1233 101.306 84.0475 101.314 83.9674C101.324 83.8778 101.334 83.7827 101.334 83.6877H93.8548C93.8841 83.7928 93.8961 83.9021 93.8903 84.0111C93.9279 84.5501 93.9613 85.0177 93.9976 85.521C94.166 87.9192 94.8238 90.2569 95.93 92.3887C96.1917 92.9868 96.6451 93.4797 97.2181 93.7887C96.9821 93.5262 96.778 93.2364 96.6099 92.9256C95.5156 90.7891 94.8585 88.4539 94.6775 86.0579C94.6399 85.5539 94.6057 85.087 94.5702 84.5473ZM92.6377 72.6452C92.6199 72.7176 92.593 72.7897 92.566 72.8618C92.5393 72.9334 92.5126 73.0049 92.4949 73.0764C89.7625 74.7524 87.8349 77.4822 87.1629 80.6273H86.4113C86.6976 77.2113 89.5607 73.3998 92.8203 72.0334C92.7815 72.2434 92.7208 72.4487 92.6391 72.6459L92.6377 72.6452ZM96.5737 73.1842C96.968 72.1419 97.5399 71.6022 98.2916 71.6022L98.2923 71.6008C98.3688 71.6008 98.4455 71.611 98.5167 71.6206C98.5784 71.6288 98.6361 71.6365 98.6859 71.6365C98.4439 71.2791 98.0426 71.064 97.6124 71.0611C96.8962 71.0247 96.2881 71.5644 95.8945 72.6431C95.2326 74.3825 94.6711 76.1587 94.2128 77.9631C94.0722 78.6623 93.9884 79.3719 93.962 80.0848C93.962 80.1926 93.9532 80.2915 93.9443 80.3903C93.9354 80.4892 93.9265 80.5881 93.9265 80.6959H94.6419V80.6259C94.6481 79.9116 94.732 79.2002 94.892 78.5042C95.3502 76.6998 95.9117 74.9235 96.5737 73.1842ZM90.9226 83.7213C90.9226 83.8163 90.9326 83.9114 90.9419 84.001C90.9503 84.0811 90.9582 84.1569 90.9582 84.2246H87.057C87.3383 87.2512 88.8379 90.031 91.2083 91.9197C88.4619 90.0311 86.692 87.0146 86.3771 83.6856H90.9219L90.9226 83.7213ZM96.2902 97.134V96.8463C95.2555 96.7453 94.2353 96.5281 93.2487 96.1988C94.2306 96.6071 95.249 96.9203 96.2902 97.134ZM104.914 80.6651H104.27C104.124 77.6829 103.458 74.7497 102.302 71.9991C103.245 72.3428 104.118 72.8545 104.88 73.5097C104.298 73.0948 103.659 72.7677 102.983 72.5388C104.091 75.1143 104.744 77.8638 104.914 80.6644L104.914 80.6651ZM108.994 83.7213H104.274C104.225 86.9204 103.531 90.0764 102.234 92.9984C102.626 92.8283 103.008 92.6362 103.379 92.423C104.342 89.794 104.874 87.0251 104.953 84.2246H108.994C109.012 84.0573 109.012 83.8886 108.994 83.7213ZM109.244 73.8688C107.743 71.8688 105.76 70.2851 103.483 69.2663C105.962 70.0709 108.178 71.5377 109.892 73.5097L109.244 73.8688ZM81.3372 63.9396C80.0353 64.6958 78.7325 65.4526 77.4317 66.2094H77.431C77.0374 66.425 77.0012 66.5328 77.1454 66.8205C77.2282 67.1254 77.2406 67.4453 77.1816 67.7557V68.2954C77.2087 68.462 77.2696 68.6212 77.3607 68.763C78.4377 69.3931 79.5141 70.0159 80.6004 70.6444L80.6027 70.6457L80.6032 70.646L80.6035 70.6462C81.9345 71.4163 83.2804 72.195 84.6606 73.0064L86.1277 73.8695C86.1458 73.8329 86.1731 73.8051 86.2004 73.7775C86.2268 73.7507 86.2531 73.7241 86.2705 73.6896L86.0205 73.5461L85.0933 73.014L85.0931 73.0139C82.9208 71.7675 80.8209 70.5628 78.7205 69.3027C78.6487 69.2663 78.577 69.0507 78.5414 68.8351C78.5234 68.6557 78.5234 68.4748 78.5414 68.2954C78.5645 67.9833 78.5523 67.6696 78.5052 67.3602C78.3979 67.0004 78.469 66.8926 78.8271 66.677C84.3019 63.513 89.7432 60.3483 95.0376 57.22H95.0732C94.8143 57.1177 94.5818 56.9579 94.3932 56.7524C94.3733 56.7371 94.3548 56.7225 94.3373 56.7088C94.2297 56.6243 94.1637 56.5725 94.0714 56.5725C93.918 56.6036 93.7722 56.6648 93.6423 56.7524C89.6124 59.1326 85.4793 61.5334 81.3372 63.9396ZM69.9882 67.6479C69.9791 67.0824 70.1986 66.5374 70.5966 66.1375C70.9946 65.7376 71.537 65.517 72.0997 65.5262C73.0525 65.5334 73.8914 66.1585 74.175 67.0725C73.7761 66.5212 73.1353 66.1993 72.4571 66.2094C71.8943 66.2002 71.352 66.4208 70.954 66.8207C70.556 67.2206 70.3365 67.7656 70.3456 68.3311C70.3511 68.5246 70.3744 68.7173 70.4153 68.9065C70.1475 68.541 69.9982 68.1016 69.9875 67.6479H69.9882ZM74.2105 96.9163C73.9439 95.9799 73.1042 95.325 72.1352 95.2979L72.1325 95.2972C70.9434 95.3502 69.986 96.2965 69.9137 97.4903C69.9246 97.9446 70.0744 98.3845 70.3428 98.7503C70.3021 98.5731 70.2788 98.3924 70.2732 98.2106C70.2876 96.9992 71.2512 96.0152 72.4564 95.9811H72.4926C73.1789 96.007 73.8141 96.3527 74.2105 96.9163ZM75.213 93.4282L75.1939 93.4186C74.6994 93.1698 74.2053 92.9212 73.7459 92.6372C73.6386 92.5672 73.5313 92.4573 73.5313 92.3852C73.4958 86.5598 73.4958 80.6252 73.4958 74.9097V72.5724L75.6428 71.3495L76.7518 71.997L74.8194 73.0757V75.413C74.8194 81.1306 74.8194 87.0638 74.8549 92.8885C74.9158 92.9811 74.9878 93.0657 75.0694 93.1405C75.1774 93.2131 75.2945 93.2764 75.4116 93.3397C75.5272 93.4022 75.6428 93.4647 75.7494 93.536L75.5703 93.6438C75.4611 93.5562 75.3407 93.4837 75.2123 93.4282H75.213ZM77.1454 96.161V98.786L94.1794 108.64C94.2157 108.621 94.2524 108.594 94.2888 108.567C94.3243 108.54 94.3596 108.513 94.3939 108.496L78.5052 99.3257V96.7007L86.5924 91.6663C86.4764 91.516 86.3681 91.3736 86.2603 91.2318L86.2599 91.2313L86.2584 91.2293L86.258 91.2287C86.134 91.0657 86.0106 90.9035 85.877 90.7311L77.1454 96.161ZM97.9008 110.041C98.8457 110.012 99.6878 110.636 99.9405 111.551C99.5459 111.038 98.9399 110.733 98.2944 110.724H98.2588C97.104 110.732 96.159 111.65 96.1118 112.809C96.1151 113.003 96.1385 113.196 96.1815 113.384C95.8976 113.014 95.7464 112.558 95.7524 112.09C95.8037 110.938 96.7526 110.034 97.9001 110.043L97.9008 110.041ZM99.6904 107.416C100.18 107.627 100.637 107.905 101.05 108.243L101.049 108.244C101.335 108.496 101.442 108.496 101.802 108.352C101.678 108.281 101.555 108.219 101.431 108.157L101.431 108.157L101.431 108.157C101.304 108.094 101.177 108.03 101.05 107.957C100.923 107.877 100.792 107.805 100.657 107.741V97.3853C104.723 96.9038 108.399 94.7239 110.784 91.38L109.567 90.6611C107.179 94.1012 103.442 96.3518 99.2968 96.8456V107.201C99.4238 107.28 99.5552 107.352 99.6904 107.416ZM113.834 89.8167L113.834 89.8167C113.254 89.4719 112.678 89.1291 112.108 88.79L110.924 88.1068C112.43 84.3305 112.352 80.1027 110.709 76.3846L119.476 71.4944L120.621 72.1419L112.069 76.9243C113.712 80.6423 113.79 84.8703 112.283 88.6465L113.468 89.3297C114.396 89.8711 115.33 90.425 116.268 90.9811C117.572 91.7543 118.884 92.5317 120.195 93.2854C120.169 93.2895 120.144 93.302 120.125 93.3211C120.046 93.3564 119.961 93.38 119.875 93.3911L119.873 93.3925C117.875 92.2212 115.834 91.007 113.834 89.8167ZM123.201 95.1908C122.651 95.1926 122.124 95.4121 121.734 95.8019H121.732C121.345 96.2007 121.105 96.721 121.053 97.2761C121.047 97.7438 121.198 98.1998 121.482 98.5704C121.439 98.3815 121.415 98.1887 121.412 97.995C121.42 97.4259 121.651 96.883 122.056 96.4851C122.446 96.0953 122.973 95.8758 123.523 95.874H123.559C124.221 95.8887 124.841 96.2066 125.241 96.7371C124.986 95.8331 124.171 95.2043 123.236 95.1908H123.201Z" fill="#6540F7"/>
<path d="M102.266 92.9984C103.546 90.0709 104.239 86.9184 104.306 83.7213H109.029C109.173 85.0513 108.529 86.8496 107.312 88.6479C106.082 90.5562 104.33 92.0669 102.266 92.9984Z" fill="#50E3C2"/>
<path d="M101.336 83.7213C101.193 86.7418 100.763 89.8701 99.1533 92.6029C98.7952 93.1783 98.2588 93.8972 97.6145 93.8972C97.0774 93.8972 96.4692 93.3575 95.9683 92.423C94.8622 90.2912 94.2044 87.9535 94.0359 85.5553C94.0003 85.052 93.9662 84.5844 93.9286 84.0447C93.9344 83.9357 93.9224 83.8264 93.8931 83.7213H101.336Z" fill="#50E3C2"/>
<path d="M101.085 80.7008H93.8923C93.8923 80.4852 93.9279 80.3053 93.9279 80.0897C93.9542 79.3768 94.038 78.6672 94.1786 77.968C94.6368 76.1636 95.1983 74.3873 95.8603 72.648C96.2539 71.5693 96.8621 71.0296 97.5782 71.066C98.3654 71.066 98.7945 71.7492 99.2961 72.6844C100.55 75.0217 101.014 77.5025 101.3 80.7029L101.085 80.7008Z" fill="#50E3C2"/>
<path d="M104.269 80.6651C104.123 77.6829 103.457 74.7497 102.301 71.9991C105.307 73.0421 108.528 76.6737 108.958 80.6651H104.269Z" fill="#50E3C2"/>
<path d="M92.8216 72.0348C92.752 72.2504 92.6788 72.4303 92.6071 72.6459C92.2143 73.7542 91.8799 74.8825 91.6053 76.0262C91.3566 77.1663 91.1655 78.3184 91.0327 79.4779C90.9972 79.8734 90.9254 80.2689 90.8537 80.6679H86.4161C86.699 77.2491 89.5976 73.4348 92.8216 72.0348Z" fill="#50E3C2"/>
<path d="M90.9219 83.7213C90.9905 86.8643 91.6585 89.9649 92.8899 92.8549C89.7766 91.5949 86.5916 87.8205 86.3771 83.7213H90.9219Z" fill="#50E3C2"/>
<path d="M120.623 67.8999C120.62 67.3394 120.842 66.8014 121.24 66.4085C121.638 66.0156 122.177 65.8013 122.735 65.8146H122.771C123.934 65.8431 124.858 66.8033 124.849 67.9717C124.839 69.1401 123.898 70.0847 122.736 70.0937C122.166 70.1025 121.619 69.867 121.232 69.4462C120.842 69.0267 120.625 68.4741 120.624 67.8999H120.623Z" fill="#BD10E0"/>
<path d="M121.411 95.9825C121.801 95.5927 122.328 95.3732 122.878 95.3714H122.913C124.08 95.403 125.013 96.3561 125.025 97.5288C125.026 98.0949 124.798 98.6371 124.393 99.0305C123.988 99.424 123.441 99.6347 122.878 99.6141C122.311 99.6063 121.771 99.3735 121.375 98.9666C120.981 98.5647 120.762 98.0213 120.767 97.4567C120.749 96.8929 120.986 96.3512 121.411 95.9825Z" fill="#BD10E0"/>
<path d="M98.6154 54.4515C98.2194 54.8584 97.6792 55.0912 97.1128 55.099C96.55 55.1082 96.0077 54.8876 95.6097 54.4877C95.2117 54.0878 94.9922 53.5428 95.0013 52.9773C94.9841 52.4095 95.2011 51.8598 95.6009 51.4581C96.0006 51.0564 96.5477 50.8384 97.1128 50.8556C97.678 50.8493 98.2224 51.0696 98.6254 51.4679C99.0283 51.8661 99.2567 52.4094 99.2598 52.9773C99.2214 53.5289 98.9937 54.0499 98.6154 54.4515Z" fill="#BD10E0"/>
<path d="M97.5419 110.223C98.3118 110.209 99.0293 110.613 99.4183 111.281C99.8073 111.949 99.8073 112.776 99.4183 113.443C99.0293 114.111 98.3118 114.516 97.5419 114.502C96.9756 114.494 96.4353 114.261 96.0393 113.854C95.6514 113.462 95.4329 112.933 95.4312 112.38C95.4248 111.812 95.6441 111.265 96.0405 110.86C96.4368 110.455 96.9774 110.226 97.5426 110.223H97.5419Z" fill="#BD10E0"/>
<path d="M71.8119 95.4799C72.9758 95.5145 73.9219 96.434 73.9952 97.6016C74.0004 98.1945 73.7684 98.7647 73.3511 99.1839C72.9339 99.6032 72.3665 99.8364 71.7764 99.8311C70.6027 99.8024 69.658 98.8531 69.6294 97.6737C69.6591 96.475 70.619 95.5101 71.8119 95.4799V95.4799Z" fill="#BD10E0"/>
<path d="M73.2798 69.2663C72.8838 69.6732 72.3435 69.906 71.7772 69.9138C71.2153 69.9193 70.6744 69.6994 70.2745 69.3027C69.8694 68.9046 69.6377 68.3614 69.6302 67.7921C69.621 67.2266 69.8406 66.6816 70.2385 66.2817C70.6365 65.8818 71.1789 65.6612 71.7416 65.6704C72.9016 65.6657 73.8539 66.5907 73.8887 67.7557C73.9275 68.3265 73.703 68.8835 73.2798 69.2663Z" fill="#BD10E0"/>
<path fill-rule="evenodd" clip-rule="evenodd" d="M127.566 96.56C127.534 94.6124 126.332 92.8781 124.525 92.1731C124.166 92.0296 124.131 91.9211 124.131 91.4899C124.131 84.73 124.131 78.5448 124.095 72.5759C124.095 72.1447 124.165 72.0005 124.561 71.8206C126.656 70.8647 127.825 68.5894 127.388 66.3193C126.974 64.0827 125.133 62.3941 122.878 62.1844C121.524 62.0553 120.173 62.4689 119.121 63.3352L115.828 61.4291C111.284 58.8041 106.596 56.1091 102.016 53.482C101.729 53.3385 101.694 53.23 101.766 52.9066C101.995 51.2071 101.353 49.5064 100.058 48.3882C98.7642 47.2699 96.9945 46.8863 95.3566 47.3689C92.7443 48.1242 91.42 50.4615 91.8136 53.482L88.5931 55.3517L88.5874 55.355C84.1516 57.944 79.535 60.6385 75.0304 63.2988C74.8876 63.3688 74.8876 63.3688 74.6723 63.2288C74.6368 63.1931 74.6027 63.1588 74.5651 63.1588C73.0578 61.8964 70.9476 61.6562 69.1975 62.5477C67.3593 63.3597 66.2276 65.2454 66.3706 67.258C66.3689 69.2313 67.5576 71.0088 69.3766 71.7527C69.7346 71.9326 69.8057 72.0047 69.8057 72.4359C69.8057 78.9459 69.8057 85.381 69.8412 91.5298C69.9115 91.8939 69.6945 92.252 69.3403 92.3565C67.5215 93.1006 66.3329 94.8779 66.3344 96.8512C66.2023 98.7556 67.2175 100.554 68.9119 101.418C70.8074 102.588 73.2502 102.321 74.8521 100.77C75.0234 100.88 75.203 100.976 75.3892 101.058C76.8207 101.886 78.2516 102.712 79.7194 103.539C80.7221 104.116 81.7354 104.701 82.755 105.29L82.7565 105.291L82.7566 105.291L82.7569 105.291C85.4847 106.866 88.2573 108.468 90.9916 110.011C91.0709 110.046 91.1435 110.095 91.2061 110.155C92.0289 110.623 92.3904 110.839 92.1006 111.63C92.0462 111.781 92.0462 111.946 92.1006 112.097V112.167C92.3834 114.731 94.5435 116.669 97.1108 116.662C97.3023 116.668 97.494 116.656 97.6834 116.626C99.0047 116.504 100.221 115.851 101.056 114.816C101.892 113.78 102.276 112.449 102.121 111.125C102.023 110.739 102.243 110.344 102.622 110.226C107.453 107.421 112.713 104.365 118.69 100.841C119.083 100.626 119.19 100.626 119.477 100.841C121.013 102.074 123.146 102.232 124.844 101.237C126.655 100.425 127.75 98.5439 127.566 96.56ZM120.918 65.7267C120.521 66.1193 120.298 66.6569 120.302 67.217C120.269 67.7976 120.491 68.3634 120.91 68.7644C121.297 69.1852 121.844 69.4207 122.414 69.4119C123.577 69.4029 124.517 68.4583 124.527 67.2899C124.537 66.1215 123.612 65.1613 122.449 65.1328H122.413C121.855 65.1195 121.316 65.3338 120.918 65.7267ZM122.52 94.6889C121.97 94.6907 121.443 94.9102 121.053 95.3V95.2993C120.648 95.6868 120.416 96.2221 120.409 96.784C120.402 97.3459 120.622 97.8868 121.017 98.2841C121.413 98.6911 121.954 98.9239 122.52 98.9316C123.083 98.9523 123.631 98.7417 124.036 98.3482C124.441 97.9548 124.669 97.4124 124.667 96.8463C124.655 95.6736 123.723 94.7205 122.556 94.6889H122.52ZM110.031 75.8827L118.798 70.9925L121.124 72.3225V91.9225C121.072 91.9564 121.02 91.9827 120.968 92.0091C120.913 92.0371 120.858 92.0652 120.802 92.1024L119.409 92.8577C119.342 92.8919 119.269 92.9155 119.195 92.9277C117.21 91.7651 115.184 90.5593 113.197 89.3769L113.195 89.3756L113.174 89.3631C112.588 89.0145 112.006 88.668 111.429 88.3252L110.245 87.642C111.753 83.8529 111.675 79.613 110.03 75.882L110.031 75.8827ZM103.626 83.218C103.559 86.415 102.866 89.5676 101.586 92.4951C103.65 91.5635 105.402 90.0528 106.632 88.1446C107.849 86.3463 108.493 84.548 108.349 83.218H103.626ZM100.656 83.218C100.512 86.2385 100.083 89.3668 98.4727 92.0996C98.1146 92.675 97.5782 93.3939 96.9338 93.3939C96.3967 93.3939 95.7886 92.8542 95.2877 91.9197C94.1815 89.7879 93.5237 87.4502 93.3552 85.052C93.3413 84.8545 93.3276 84.6625 93.3138 84.4696L93.3133 84.4633L93.3126 84.4539L93.3113 84.4351L93.3112 84.4337L93.3112 84.4334L93.311 84.431C93.2905 84.1448 93.2698 83.8555 93.248 83.5421C93.2538 83.4331 93.2418 83.3238 93.2124 83.2187L100.656 83.218ZM93.2124 80.1975H100.405L100.62 80.1996C100.333 76.9992 99.8694 74.5184 98.6155 72.1811C98.1146 71.2459 97.6848 70.5627 96.8976 70.5627C96.1815 70.5263 95.5733 71.066 95.1797 72.1447C94.5177 73.884 93.9562 75.6603 93.498 77.4647C93.3577 78.164 93.274 78.8735 93.248 79.5864C93.248 79.6942 93.2391 79.7931 93.2302 79.8919L93.2302 79.892C93.2213 79.9909 93.2124 80.0897 93.2124 80.1975ZM103.59 80.1618C103.444 77.1796 102.778 74.2464 101.622 71.4958C104.628 72.5388 107.849 76.1704 108.278 80.1618H103.59ZM92.0276 71.8496C92.0652 71.7465 92.1026 71.6438 92.1389 71.5315H92.1382C88.8822 72.9336 86.019 76.7451 85.7334 80.1646H90.1709L90.1746 80.1441L90.1746 80.1441L90.1746 80.144L90.1746 80.144L90.1746 80.144L90.1746 80.1439L90.1747 80.1439L90.1747 80.1438L90.1747 80.1438L90.1747 80.1437L90.1747 80.1437C90.2452 79.7518 90.3151 79.3632 90.35 78.9746C90.4828 77.8151 90.6739 76.663 90.9226 75.5229C91.1972 74.3792 91.5316 73.2509 91.9244 72.1426C91.9584 72.0393 91.9931 71.9443 92.0276 71.8496ZM90.2065 83.218C90.275 86.361 90.9431 89.4616 92.1744 92.3516C89.0612 91.0916 85.8762 87.3172 85.6617 83.218H90.2065ZM117.369 68.4032C117.397 68.3206 117.421 68.2365 117.439 68.1512H117.438C117.456 67.8752 117.456 67.5911 117.457 67.3026V67.3025V67.3025V67.3024V67.3024V67.3023V67.3022V67.3022V67.3021C117.458 66.9892 117.459 66.6711 117.481 66.3529V65.8496C117.302 65.7418 117.123 65.634 116.908 65.5262C116.229 65.1392 115.559 64.7521 114.89 64.3649L114.889 64.3647L114.889 64.3645L114.889 64.3644L114.888 64.3642L114.888 64.3641L114.888 64.3639L114.888 64.3637L114.887 64.3636L114.887 64.3634C114.251 63.996 113.616 63.6285 112.972 63.261C111.511 62.4126 110.03 61.5592 108.54 60.7006C106.052 59.2668 103.539 57.8188 101.055 56.3569C100.375 55.9614 100.161 55.9614 99.767 56.3926C99.4379 56.7123 99.0286 56.9361 98.5827 57.0401C98.3306 57.1122 98.2609 57.1479 98.2609 57.6155V67.216C98.2609 67.2699 98.2698 67.3329 98.2787 67.3959C98.2875 67.4589 98.2964 67.5219 98.2964 67.5758C102.379 67.9373 106.114 70.0299 108.567 73.3291L109.855 72.6102C111.333 71.7924 112.835 70.948 114.341 70.1016L114.341 70.1013C115.351 69.5337 116.363 68.9652 117.369 68.4032ZM98.2943 53.7676C97.8981 54.1747 97.3576 54.4075 96.791 54.4151C96.2283 54.4243 95.6859 54.2037 95.2879 53.8038C94.8899 53.4039 94.6704 52.8589 94.6795 52.2934C94.6622 51.7255 94.879 51.1756 95.2788 50.7739C95.6786 50.3722 96.2259 50.1542 96.791 50.1717C97.3562 50.1653 97.9006 50.3857 98.3036 50.7839C98.7066 51.1822 98.9349 51.7254 98.938 52.2934C98.8995 52.8449 98.6717 53.3659 98.2936 53.7676H98.2943ZM95.2884 65.2742C95.2884 62.8291 95.2884 60.5275 95.3239 58.1902L95.3232 58.1909C95.3594 57.22 95.2515 56.968 94.5722 56.8588C94.1989 56.7716 93.8614 56.5706 93.606 56.2834C93.5861 56.2681 93.5676 56.2535 93.5502 56.2399L93.5501 56.2398C93.4425 56.1553 93.3765 56.1035 93.2842 56.1035C93.1308 56.1347 92.985 56.1958 92.8551 56.2834C88.7787 58.6913 84.5959 61.1209 80.4051 63.555L80.4044 63.5554L80.4037 63.5558C79.1505 64.2838 77.8965 65.0121 76.6445 65.7404C76.2871 65.956 76.253 66.0638 76.3226 66.4236C76.4052 66.7285 76.4173 67.0484 76.3582 67.3588V67.8985C76.3852 68.0651 76.4462 68.2242 76.5372 68.3661C77.6152 68.9967 78.6924 69.62 79.7796 70.249L79.7801 70.2493L79.7804 70.2495C81.1113 71.0195 82.457 71.7982 83.8372 72.6095L85.3043 73.4726C87.6829 70.2161 91.2971 68.0944 95.2884 67.6115V65.2742ZM76.4648 95.6591L85.1963 90.2292C87.6208 93.6879 91.4204 95.9185 95.6095 96.3423V99.7226C95.6095 101.784 95.6415 103.91 95.6732 106.01L95.6792 106.411C95.6792 106.771 95.6437 106.842 95.3573 106.986C94.8529 107.226 94.3734 107.515 93.9258 107.85C93.7863 107.934 93.6546 108.03 93.5322 108.137L76.4982 98.3205V95.6605L76.4648 95.6591ZM99.0965 110.597C98.7075 109.929 97.99 109.525 97.2201 109.539C96.0592 109.56 95.129 110.511 95.129 111.678C95.129 112.845 96.0592 113.797 97.2201 113.818C97.99 113.832 98.7075 113.427 99.0965 112.759C99.4855 112.092 99.4855 111.265 99.0965 110.597ZM98.58 96.3423C102.725 95.8484 106.462 93.5979 108.85 90.1578L110.067 90.8767C112.536 92.3152 115.078 93.8251 117.546 95.3357C117.594 95.4496 117.618 95.572 117.616 95.6955C117.611 95.8773 117.587 96.058 117.546 96.2352C117.438 96.6244 117.438 97.0359 117.546 97.4252C117.761 98.0363 117.582 98.2162 116.866 98.6152C116.24 98.9795 115.611 99.3449 114.979 99.7119L114.978 99.7125L114.976 99.7137L114.974 99.7148C110.558 102.281 106.012 104.922 101.192 107.785C100.799 108.001 100.691 108.001 100.369 107.749C99.956 107.412 99.4983 107.134 99.0091 106.923C98.8739 106.859 98.7425 106.787 98.6155 106.707V96.3423H98.58ZM72.8144 72.0705V74.4078H72.8151V91.8476C72.8151 91.9197 72.9224 92.0296 73.0297 92.0996C73.489 92.3836 73.983 92.6321 74.4774 92.8808L74.4774 92.8808L74.4776 92.8809L74.4968 92.8906L74.9259 93.1062L83.7292 87.6406C82.1889 83.9035 82.2276 79.6976 83.8365 75.9898L74.9614 70.8476L72.8144 72.0705ZM71.4546 94.796C72.6184 94.8306 73.5646 95.75 73.6378 96.9177C73.6431 97.5106 73.411 98.0807 72.9938 98.5C72.5765 98.9193 72.0091 99.1525 71.4191 99.1472C70.2454 99.1184 69.3007 98.1692 69.2721 96.9898C69.3021 95.7913 70.2619 94.8269 71.4546 94.7967V94.796ZM71.4546 69.2299C72.021 69.2221 72.5612 68.9893 72.9572 68.5824L72.9579 68.5831C73.3527 68.181 73.5716 67.6373 73.5661 67.0725C73.5313 65.9075 72.579 64.9825 71.4191 64.9872C70.8563 64.978 70.3139 65.1986 69.916 65.5985C69.518 65.9984 69.2985 66.5434 69.3076 67.1089C69.3154 67.678 69.547 68.2208 69.952 68.6188C70.3519 69.0155 70.8927 69.2354 71.4546 69.2299Z" fill="#2721AB"/>
</g>
</g>
<path opacity="0.698265" fill-rule="evenodd" clip-rule="evenodd" d="M133.152 -4V121.545L0.078125 122L133.152 -4Z" fill="url(#paint1_linear_0_131)"/>
<mask id="mask1_0_131" style="mask-type:luminance" maskUnits="userSpaceOnUse" x="0" y="-4" width="134" height="126">
<path fill-rule="evenodd" clip-rule="evenodd" d="M133.152 -4V121.545L0.078125 122L133.152 -4Z" fill="white"/>
</mask>
<g mask="url(#mask1_0_131)">
</g>
<defs>
<linearGradient id="paint0_linear_0_131" x1="-75.2558" y1="63.1646" x2="59.3427" y2="196.506" gradientUnits="userSpaceOnUse">
<stop stop-color="#0043FF"/>
<stop offset="1" stop-color="#A370F1"/>
</linearGradient>
<linearGradient id="paint1_linear_0_131" x1="8.00029" y1="79.017" x2="83.9674" y2="158.318" gradientUnits="userSpaceOnUse">
<stop stop-color="#9CB6FF" stop-opacity="0.502321"/>
<stop offset="1" stop-color="white" stop-opacity="0.497254"/>
</linearGradient>
</defs>
</svg>
